<svg xmlns="http://www.w3.org/2000/svg" width="12.607" height="10.522" viewBox="0 0 12.607 10.522">
    <g id="prefix__azn_symbol_wiki" style="fill:#ff7d00">
        <path d="M23.857 18.233h-1.371l.006-.105c.011-.215.017-.407.017-.586 0-1.835-.457-3.588-1.287-4.937-.79-1.286-1.853-2.098-3.002-2.298l.147 6.498.001.064-.058.028-1.283.618-.149.072.006-.165.222-7.117c-1.15.197-2.215 1.007-3.009 2.294-.831 1.35-1.29 3.105-1.29 4.943 0 .178.006.37.018.586l.005.105h-1.304l-.007-.092c-.02-.269-.031-.544-.031-.819 0-2.068.589-4.04 1.659-5.552 1.049-1.484 2.464-2.394 3.993-2.57l.021-.658.002-.06.053-.026.81-.412.142-.072.004.159.024 1.063c1.539.162 2.965 1.067 4.025 2.554 1.08 1.515 1.674 3.495 1.674 5.574 0 .275-.01.55-.03.819l-.008.092z" style="stroke:none" transform="translate(-11.388 -7.811)"/>
        <path d="M18.072 8.133l-.811.412-.023.745c-3.16.306-5.65 3.784-5.65 8.032 0 .274.01.544.03.81h1.107c-.01-.194-.017-.391-.017-.59 0-3.853 1.978-7.015 4.502-7.354l-.226 7.237 1.283-.618-.15-6.617c2.52.346 4.492 3.505 4.492 7.352 0 .199-.007.396-.018.591h1.174c.02-.267.03-.537.03-.81 0-4.27-2.516-7.762-5.697-8.038l-.026-1.152m.193-.322l.007.318.022.975c1.534.19 2.952 1.103 4.008 2.586 1.092 1.532 1.693 3.532 1.693 5.632 0 .278-.01.556-.031.826l-.014.185H22.38l.01-.21c.012-.214.018-.403.018-.581 0-1.816-.452-3.551-1.272-4.884-.748-1.217-1.74-2-2.814-2.23l.144 6.375.003.129-.116.055-1.284.618-.297.143.01-.33.219-6.991c-1.076.226-2.07 1.008-2.82 2.225-.822 1.334-1.274 3.07-1.274 4.89 0 .176.005.366.017.58l.01.21H11.435l-.015-.184c-.02-.27-.031-.548-.031-.826 0-2.088.596-4.08 1.677-5.61 1.046-1.48 2.453-2.397 3.978-2.601l.018-.572.004-.119.105-.053.811-.412.284-.144z" style="stroke:none;fill:#ff7d00" transform="translate(-11.388 -7.811)"/>
    </g>
</svg>
