<svg xmlns="http://www.w3.org/2000/svg" width="16" height="14.68" viewBox="0 0 16 14.68">
    <path id="prefix__heart-outline" d="M10.08 15.44l-.08.08-.088-.08C6.112 11.992 3.6 9.712 3.6 7.4a2.734 2.734 0 012.8-2.8 3.14 3.14 0 012.856 1.888h1.488A3.14 3.14 0 0113.6 4.6a2.734 2.734 0 012.8 2.8c0 2.312-2.512 4.592-6.32 8.04M13.6 3A4.811 4.811 0 0010 4.664 4.811 4.811 0 006.4 3 4.352 4.352 0 002 7.4c0 3.016 2.72 5.488 6.84 9.224L10 17.68l1.16-1.056C15.28 12.888 18 10.416 18 7.4A4.352 4.352 0 0013.6 3z" transform="translate(-2 -3)" style="fill:#faf5e4"/>
</svg>
