<svg xmlns="http://www.w3.org/2000/svg" width="16" height="16" viewBox="0 0 16 16">
    <path id="prefix__instagram" d="M6.64 2h6.72A4.643 4.643 0 0118 6.64v6.72A4.64 4.64 0 0113.36 18H6.64A4.643 4.643 0 012 13.36V6.64A4.64 4.64 0 016.64 2m-.16 1.6A2.88 2.88 0 003.6 6.48v7.04a2.878 2.878 0 002.88 2.88h7.04a2.88 2.88 0 002.88-2.88V6.48a2.878 2.878 0 00-2.88-2.88H6.48m7.72 1.2a1 1 0 11-1 1 1 1 0 011-1M10 6a4 4 0 11-4 4 4 4 0 014-4m0 1.6a2.4 2.4 0 102.4 2.4A2.4 2.4 0 0010 7.6z" transform="translate(-2 -2)" style="fill:#aaa"/>
</svg>
