<svg xmlns="http://www.w3.org/2000/svg" width="12" height="12" viewBox="0 0 12 12">
    <path id="prefix__instagram" d="M5.48 2h5.04A3.483 3.483 0 0114 5.48v5.04A3.48 3.48 0 0110.52 14H5.48A3.483 3.483 0 012 10.52V5.48A3.48 3.48 0 015.48 2m-.12 1.2A2.16 2.16 0 003.2 5.36v5.28a2.159 2.159 0 002.16 2.16h5.28a2.16 2.16 0 002.16-2.16V5.36a2.159 2.159 0 00-2.16-2.16H5.36m5.79.9a.75.75 0 11-.75.75.75.75 0 01.75-.75M8 5a3 3 0 11-3 3 3 3 0 013-3m0 1.2A1.8 1.8 0 109.8 8 1.8 1.8 0 008 6.2z" transform="translate(-2 -2)" style="fill:#fff"/>
</svg>
