<svg xmlns="http://www.w3.org/2000/svg" width="12" height="11.01" viewBox="0 0 12 11.01">
    <path id="prefix__heart-outline" d="M8.06 12.33l-.06.06-.066-.06C5.084 9.744 3.2 8.034 3.2 6.3a2.051 2.051 0 012.1-2.1 2.355 2.355 0 012.142 1.416h1.116A2.355 2.355 0 0110.7 4.2a2.051 2.051 0 012.1 2.1c0 1.734-1.884 3.444-4.74 6.03M10.7 3A3.608 3.608 0 008 4.248 3.608 3.608 0 005.3 3 3.264 3.264 0 002 6.3c0 2.262 2.04 4.116 5.13 6.918l.87.792.87-.792C11.96 10.416 14 8.562 14 6.3A3.264 3.264 0 0010.7 3z" transform="translate(-2 -3)" style="fill:#ff0023"/>
</svg>
