<svg xmlns="http://www.w3.org/2000/svg" width="16" height="13.002" viewBox="0 0 16 13.002">
    <path id="prefix__twitter" d="M17.54 5.53a6.553 6.553 0 01-1.881.528A3.288 3.288 0 0017.1 4.237a6.609 6.609 0 01-2.08.8A3.231 3.231 0 0012.6 4a3.277 3.277 0 00-3.267 3.281 3.41 3.41 0 00.084.75A9.326 9.326 0 012.657 4.6a3.268 3.268 0 001.017 4.371 3.245 3.245 0 01-1.491-.382v.023a3.284 3.284 0 002.631 3.22 3.217 3.217 0 01-1.476.054A3.273 3.273 0 006.4 14.164a6.517 6.517 0 01-4.08 1.408 6.671 6.671 0 01-.78-.046 9.334 9.334 0 0014.371-7.863c0-.145 0-.283-.008-.428A6.556 6.556 0 0017.54 5.53z" transform="translate(-1.54 -4)" style="fill:#aaa"/>
</svg>
