<svg xmlns="http://www.w3.org/2000/svg" width="12" height="8.4" viewBox="0 0 12 8.4">
    <path id="prefix__youtube" d="M6.8 11l3.114-1.8L6.8 7.4V11m6.936-4.7a6.2 6.2 0 01.168 1.14c.042.48.06.894.06 1.254L14 9.2a11.921 11.921 0 01-.264 2.9 1.406 1.406 0 01-1.036 1.036 8.459 8.459 0 01-1.59.168c-.78.042-1.494.06-2.154.06L8 13.4a24.559 24.559 0 01-4.7-.264A1.406 1.406 0 012.264 12.1a6.2 6.2 0 01-.168-1.14c-.042-.48-.06-.894-.06-1.254L2 9.2a11.921 11.921 0 01.264-2.9A1.406 1.406 0 013.3 5.264 8.459 8.459 0 014.892 5.1c.78-.042 1.494-.06 2.154-.06L8 5a24.559 24.559 0 014.7.264A1.406 1.406 0 0113.736 6.3z" transform="translate(-2 -5)" style="fill:#fff"/>
</svg>
