<svg xmlns="http://www.w3.org/2000/svg" width="118.868" height="64" viewBox="0 0 118.868 64">
  <g id="myauto_logo" data-name="myauto logo" transform="translate(2444 5057)">
    <g id="Group_32" data-name="Group 32" transform="translate(-2444 -5057)">
      <path id="Path_271" data-name="Path 271" d="M453.9,588.227a17.262,17.262,0,0,1-7.177-1.713,21.35,21.35,0,0,1-2.4-1.324c-2.81,0-15.117-.016-18.768-.133-3.145-.1-4.141-.568-5.208-1.215a3.649,3.649,0,0,0-.856-.421c-.086-.031-.981-.265-7.4-.592-3.978-.2-8.033-.335-9.481-.381a3.318,3.318,0,0,1-2.608.786,11.525,11.525,0,0,1-2.841-.358,5.518,5.518,0,0,1-3.308-2.095c-.3-.452-1.121-1.643-1.526-7.5-.086-1.262-.14-2.632-.148-3.769a8.7,8.7,0,0,1,.21-2.835,3.156,3.156,0,0,1,1.572-1.822,25.536,25.536,0,0,1,1.074-3.574,11.7,11.7,0,0,1,3.737-5.435c3.1-2.235,11.575-4.182,14.308-4.773l2.514-2.219h5.488a55.626,55.626,0,0,1,18.932-8.239,41.9,41.9,0,0,1,8.8-.716,110.179,110.179,0,0,1,13.685.888,16.508,16.508,0,0,1,7.177,2.9,18.525,18.525,0,0,1,1.969,1.612h6.235v-2.772l7.738,4.081v10.629l-.638-.4c.195.5.42,1.168.685,2.1.163.569.311,1.129.42,1.542a3.865,3.865,0,0,1,1.58,1.674c.117.3.218.561.226,3.232a12.554,12.554,0,0,1-.156,3.161,3.872,3.872,0,0,1-1.534,1.939l-.023.023a16.342,16.342,0,0,1-1.191,5.5c-.708,1.472-2.164,2.453-4.336,2.928a17.9,17.9,0,0,1-3.744.327,4.413,4.413,0,0,1-2.156-.491l-8.4,2.92a15.169,15.169,0,0,1-1.962,2.2,16.63,16.63,0,0,1-7.442,3.971A13.036,13.036,0,0,1,453.9,588.227Z" transform="translate(-374.408 -539.9)" fill="#fff"/>
      <path id="Path_272" data-name="Path 272" d="M459.455,593.285a16.848,16.848,0,0,1-6.977-1.667,19.742,19.742,0,0,1-2.461-1.37c-2.64,0-15.193-.016-18.907-.133-3.029-.1-3.971-.537-4.984-1.145a4.391,4.391,0,0,0-.958-.467c-.195-.062-1.316-.3-7.522-.615-3.349-.171-7.118-.3-9.711-.389a1.853,1.853,0,0,0-.125.14c-.436.475-1.051.654-2.274.654-.989,0-4.337-.164-5.763-2.243-.257-.382-1.051-1.534-1.441-7.266-.086-1.246-.14-2.609-.148-3.738a8.215,8.215,0,0,1,.187-2.679,2.732,2.732,0,0,1,1.534-1.643,25.458,25.458,0,0,1,1.106-3.738,11.208,11.208,0,0,1,3.574-5.217c3.1-2.227,11.86-4.205,14.258-4.719l2.469-2.188h5.459a55.232,55.232,0,0,1,18.892-8.254,41.387,41.387,0,0,1,8.7-.709,110.828,110.828,0,0,1,13.62.88,16.122,16.122,0,0,1,6.97,2.819A16.405,16.405,0,0,1,477,551.3h6.907v-2.453l6.783,3.574V561.9l-5.841-3.73-.031.132c1.939,1.254,4.057,2.648,4.454,2.967s.748.763,1.48,3.325c.179.639.35,1.269.46,1.7,1.075.74,1.394,1.145,1.557,1.557.094.234.187.483.195,3.061a12.846,12.846,0,0,1-.14,3.037,3.421,3.421,0,0,1-1.371,1.69c-.062.054-.132.1-.195.148a16.39,16.39,0,0,1-1.152,5.537c-.638,1.332-1.986,2.227-4,2.671a17.291,17.291,0,0,1-3.644.319,3.745,3.745,0,0,1-2.1-.537l-8.753,3.045a15.031,15.031,0,0,1-1.986,2.258,16.091,16.091,0,0,1-7.227,3.855A11.929,11.929,0,0,1,459.455,593.285Z" transform="translate(-379.974 -545.433)" fill="#fff"/>
      <g id="Group_20" data-name="Group 20" transform="translate(0 33.614)">
        <path id="Path_273" data-name="Path 273" d="M170.47,977.641c25.745-2.975,51.272-2.328,76.588-3.161a4,4,0,0,1,.436,0,7.479,7.479,0,0,1,2.756.576,7.61,7.61,0,0,1,1.985,1.23c.054-.055.109-.117.171-.171a7.267,7.267,0,0,1,4.764-2.056q3.492-.175,6.975-.421c.031,0,.062-.008.093-.008.047,0,.093-.008.14-.008,6.142-.428,12.269-1.012,18.388-1.822q-.14,4.859-.319,9.718l-.911,1.846c.272-.031.537-.062.81-.1q-.257,6.541-.561,13.082c-14.091,1.627-28.244,2.18-42.451,2.461h-.452a8.606,8.606,0,0,1-1.557-.195c-.008.078-.023.156-.031.241-24.289.444-48.757.195-73.4,3.333Q167.251,989.9,170.47,977.641Z" transform="translate(-163.9 -971.8)" fill="#fff"/>
      </g>
      <g id="Group_21" data-name="Group 21" transform="translate(0.568 34.113)">
        <path id="Path_274" data-name="Path 274" d="M246.021,1004.225a7.8,7.8,0,0,1-2.382-.319c-.016.125-.031.242-.047.366q-7.532.14-15.079.234h0c-.07,0-.14.008-.21.008-18.925.28-37.959.67-57.1,3.068q3.281-11.8,6.4-23.572c25.628-2.936,51.038-2.328,76.222-3.177A6.933,6.933,0,0,1,259,982.818a5.251,5.251,0,0,1,.452-.483,6.832,6.832,0,0,1,4.476-1.939q3.491-.187,6.975-.428c.031,0,.062-.008.093-.008.047,0,.093-.008.14-.008,5.955-.42,11.9-.981,17.82-1.752q-.117,4.52-.272,9.033c-.42.857-.841,1.713-1.269,2.57l1.144-.14q-.222,6.05-.49,12.109C274.109,1003.376,260.1,1003.937,246.021,1004.225Z" transform="translate(-171.2 -978.2)" fill="#fff"/>
      </g>
      <path id="Path_275" data-name="Path 275" d="M505.164,584.668a10.418,10.418,0,0,0-.117-2.655c-.039-.109-.148-.382-1.5-1.269-.086-.358-.3-1.207-.553-2.079-.693-2.422-.966-2.648-1.114-2.764-.452-.366-3.94-2.632-5.007-3.317l.5-2.251h.958v.366l4.555,2.912v-6.736l-4.54-2.391V566.2h-8.5a14.7,14.7,0,0,0-2.227-1.908,14.966,14.966,0,0,0-6.471-2.624,108.442,108.442,0,0,0-13.464-.872,40.208,40.208,0,0,0-8.449.677,53.728,53.728,0,0,0-18.783,8.278h-5.4l-2.375,2.1c-1.254.265-11.011,2.352-14.118,4.587-2.928,2.11-4.1,7.483-4.369,8.932a1.69,1.69,0,0,0-1.433,1.114,30.926,30.926,0,0,0,.023,5.981c.171,2.476.522,5.646,1.246,6.7,1.137,1.666,4.229,1.752,4.836,1.752,1.184,0,1.363-.195,1.441-.288.14-.148.35-.374.483-.522,4.727.14,16.61.584,18.074,1.075a5.018,5.018,0,0,1,1.176.569c.755.459,1.464.888,4.431.981,3.9.125,17.646.133,19.219.133a17.148,17.148,0,0,0,2.585,1.472,15.791,15.791,0,0,0,6.5,1.557,11.653,11.653,0,0,0,2.671-.3,14.955,14.955,0,0,0,6.72-3.582,13.062,13.062,0,0,0,2.032-2.367l9.734-3.388a2.107,2.107,0,0,0,1.846.693c1.363,0,5.506,0,6.635-2.352a16.751,16.751,0,0,0,1.075-5.638c.148-.109.366-.265.584-.444.771-.615.934-.911.989-1.114A21.647,21.647,0,0,0,505.164,584.668Z" transform="translate(-393.296 -559.173)" fill="#1e0000"/>
      <path id="Path_276" data-name="Path 276" d="M438.748,615.6s17.545.421,20.177,1.5,2.788,1.464,5,1.246,20.286-.226,20.286-.226,8.325-.171,9.165-.592,12.942-3.574,12.942-3.574l12.74-4.158,1-4.851,1.659-1.6v-4.571l-1.121-1.246-1.721-4.229-5.2-3.45.872-3.808h2.741l.413,1.082,2.352,1,.125-4.034-2.71-.88-.125.709-9.1.4,1.184,1.783,2.718.125-1.082,2.313-3.107-2.842s-3.068-2.8-4.127-3.458-3.831-2.11-3.831-2.11-7.266-.748-7.515-.771-4.664,0-4.664,0-6.853-.179-7.008-.132-3.535.608-3.535.608-4.073,1.114-6.019,1.822a44.764,44.764,0,0,0-5.763,3.115l-5.272,2.328-1.939,1.5-5.007-.156L451.254,590s-3.528.888-3.855,1.02-7.094,2.367-7.094,2.367l-2.391,1.168s-2.071,4.587-2.11,5.171-1.947,2.227-1.908,2.251a2.3,2.3,0,0,1-.1,1.768c-.436.638-1.5,2.484-1.5,2.484s1.425,5.3,1.269,6.043-1.7,1.729.249,2.032A39.7,39.7,0,0,1,438.748,615.6Z" transform="translate(-411.434 -576.14)" fill="#ff7d00"/>
      <g id="Group_22" data-name="Group 22" transform="translate(33.972 3.452)">
        <path id="Path_277" data-name="Path 277" d="M1018.871,919.473a2.61,2.61,0,0,0-.771-.008,7.813,7.813,0,0,1,.864.241,3.017,3.017,0,0,1,.436.288C1019.143,919.738,1018.941,919.528,1018.871,919.473Z" transform="translate(-985.589 -893.342)" fill="#a73e03"/>
        <path id="Path_278" data-name="Path 278" d="M817.9,874.256c-1.526-1.643-5.054-2.468-5.054-2.468s-5.326-.358-5.965-.008-1.8,3.271-1.238,3.1,8.1-.685,8.1-.685h3.06a8.464,8.464,0,0,1,1.293.257C818.029,874.38,817.959,874.318,817.9,874.256Z" transform="translate(-789.536 -849.246)" fill="#ff7d00"/>
        <path id="Path_279" data-name="Path 279" d="M1415.272,709.394a.557.557,0,0,0-.055-.467,3.034,3.034,0,0,0-.685-.763l-.078.07-2.048-.833-.506.693s1.27.981,1.2,1.55a.21.21,0,0,0,.109.21l1.557-.592C1414.766,709.269,1414.96,709.316,1415.272,709.394Z" transform="translate(-1348.722 -697.809)" fill="#a73e03"/>
        <path id="Path_280" data-name="Path 280" d="M1054.319,592.191a9.033,9.033,0,0,1-1.355-1.69c.078,0,1.2.055,2.165.07s1.565.195,1.518.3-.6,2.593-.6,2.593a3.376,3.376,0,0,0,.74.709c.459.312.172-.125.172-.125s.716-2.437.732-2.461.576-.631.576-.631l2.36-.109.1.148.958,1.246,1.885.825.094-.28a3.247,3.247,0,0,0-.358-1.036,4.347,4.347,0,0,1-.374-.732l-.873-.171-.109-.833-.856.35-.055-.4.055-.911-.53-.28-1.752.709-6.222-.49-1.471-.109s-3.434-2.11-5.023-3.146-9.064-1.62-10.84-1.479-5.124,2.609-5.124,2.609l-5.591,6.7L1021.8,595.2l3.956.187s6.876-.132,7.811-.187,5.031-.023,5.482-.07,3.014.023,3.216.07a18.982,18.982,0,0,0,2.461-.724c.031-.023.381-.74-.756-1.48a4.181,4.181,0,0,0-2.788-.374l-.693-.374.109-1.877.685-3.52s2.772-.109,2.835-.1,3.753,2.056,4.322,2.359a5.248,5.248,0,0,1,1.2.818c.063.109,2.36,2.694,2.36,2.694l1.222.693s.911.654,1.581,1.254l.631-.592A8.692,8.692,0,0,0,1054.319,592.191Z" transform="translate(-989 -584.235)" fill="#a73e03"/>
        <path id="Path_281" data-name="Path 281" d="M986.191,748.858c.241,0,2.8-.872,2.8-.872s.841-1.036.078-1.036a7.435,7.435,0,0,0-2.874.857c-1.254.553-3.107.3-5.023.21s-1.651-1.129-1.651-1.129a2.125,2.125,0,0,0-1.441.631c-.771.678-.023.607.226,1.223.857.054,1.846.125,2.749.195.311-.047.623-.086.927-.125A29.979,29.979,0,0,1,986.191,748.858Z" transform="translate(-948.369 -734.221)" fill="#a73e03"/>
        <path id="Path_282" data-name="Path 282" d="M700.626,969.3a1,1,0,0,0-.226.124C700.563,969.347,700.649,969.3,700.626,969.3Z" transform="translate(-692.628 -939.314)" fill="#a73e03"/>
        <path id="Path_283" data-name="Path 283" d="M1036.3,927.863c.257.164.553.4.872.623-.833-.724-1.8-1.557-2.367-1.986A12.117,12.117,0,0,0,1036.3,927.863Z" transform="translate(-1000.988 -899.847)" fill="#a73e03"/>
        <path id="Path_284" data-name="Path 284" d="M967.3,907.7c1.121.989,2.928.974,3.956.935-1.114-.273-2.843-.646-2.843-.646S967.876,907.84,967.3,907.7Z" transform="translate(-938.744 -882.511)" fill="#a73e03"/>
        <path id="Path_285" data-name="Path 285" d="M630.557,760.034c0-.008-.008-.015-.008-.023-1.184-.078-2.087-.14-2.087-.14l-2.352-.771s-6.183,1.916-10.684,10.3c0,0,2.834-5.755,3.676-6.985s-.452-1.184-.452-1.184l-2.679-.272s-3.193-1.02-3.278-1.02-9.5-.117-9.5-.117a4.689,4.689,0,0,0-2.593,1.285l12.086.3a5.636,5.636,0,0,0-2.4,1.526c-.615.927-4.571,13.853-4.571,13.853s1.962-.88,2.648-1.215a1.213,1.213,0,0,1,.226-.125c.023,0-.062.047-.226.125a11.688,11.688,0,0,0-3.068,2.671c-.452.935-.452,1.846-1.316,2.562s-.662.732,1.526.794,6.767.646,6.767.646,3.746.942,4.345,1a16.5,16.5,0,0,0,2.725-.4,6.226,6.226,0,0,0-.927-.685,9.173,9.173,0,0,1-1.433-1.557s14.9.748,19.219-.327,4.89-2.414,4.244-3.146a22.65,22.65,0,0,0-2.336-1.838c-.28-.241-.779-.685-1.339-1.168-.319-.226-.615-.467-.872-.623a12.108,12.108,0,0,1-1.5-1.363,2.188,2.188,0,0,0-.436-.288,7.8,7.8,0,0,0-.864-.241c-1.028.039-2.835.055-3.956-.934a8.63,8.63,0,0,0-1.293-.257h-3.06s-7.538.514-8.1.685.592-2.749,1.238-3.1,5.965.008,5.965.008,3.528.833,5.054,2.469c.062.062.125.125.195.187.576.14,1.121.288,1.121.288s1.729.374,2.842.646a2.622,2.622,0,0,1,.771.008c.062.055.265.265.522.53.569.436,1.534,1.262,2.367,1.986a3.933,3.933,0,0,0,1.114.607c.716.21,2.1.195,2.469.335s.911.958.88-.156.07-1.884-.234-2.289a18.949,18.949,0,0,1-1.176-4.034c.07-.234-.444-1.036-.163-1.947s.335-4.641.444-5,.4-1.269.4-1.269-3.4.156-4.991,0c-.475-.047-1.3-.109-2.227-.179C632,760.377,630.752,760.556,630.557,760.034Z" transform="translate(-600.6 -745.483)" fill="#a73e03"/>
        <path id="Path_286" data-name="Path 286" d="M985.208,770.731c.195.522,1.441.35,2.741.164-.9-.062-1.9-.132-2.749-.195C985.2,770.715,985.2,770.723,985.208,770.731Z" transform="translate(-955.25 -756.18)" fill="#a73e03"/>
        <path id="Path_287" data-name="Path 287" d="M1144.526,758.186a5.365,5.365,0,0,0-2.227.125.986.986,0,0,1,.794.459,8.506,8.506,0,0,0-3.808,2.975,11.373,11.373,0,0,0-1.386,2.959c.008.709.981,1.129.981,1.129l1.222-1.067,2.547-3.006,3.013-1.557a4.534,4.534,0,0,0,.717-1.028C1146.411,758.941,1145.3,758.435,1144.526,758.186Z" transform="translate(-1096.059 -744.561)" fill="#a73e03"/>
        <path id="Path_288" data-name="Path 288" d="M1321.721,742.922c-.3-1.044-.2-1.479-.631-2.134s-.825-.911-1.012-1.441a19.789,19.789,0,0,1-.865-3.24c-.171-1.192-.07-1.324-.436-1.394s-1.807-.475-3.115-.841c-.974-.272-2.866-.755-3.769-.974-.062.14-.226.187-.3.257a3.025,3.025,0,0,1-1.76.21l-.818.312-6.549-.234-2.671.545.685.529,3.4.405a3.788,3.788,0,0,1,3,.911c1.036,1.168.093,4.26.093,4.26s.935-.428,1.137-1.09a3.415,3.415,0,0,1-3.356,3.473c-3.481.335-.631,1.277.529,1.4a25.6,25.6,0,0,0,3.177.008s3.839-2.585,4.182-3.2c.319-.584-2.383.981-2.671,1.152.031.452-.023.016-.023.016a.1.1,0,0,1,.023-.016c-.008-.132-.031-.342-.062-.662-.132-1.4-.28-3.956-.28-3.956l-.374-3.037.374-.2a4.778,4.778,0,0,1,2.765,3.824c.272,2.8,1.316,2.235,1.362,1.721s.148-1.682.234-2.165.662,2.188.677,2.328-.864.312.171.335a18.689,18.689,0,0,0,3.831-.935,14.859,14.859,0,0,1,.935,2.352c-.016.358.607,4.127.607,4.127l1.2-.14A4.669,4.669,0,0,0,1321.721,742.922Z" transform="translate(-1245.352 -721.323)" fill="#a73e03"/>
        <path id="Path_289" data-name="Path 289" d="M1430.223,847.7a.1.1,0,0,0-.023.016S1430.254,848.152,1430.223,847.7Z" transform="translate(-1365.597 -827.183)" fill="#a73e03"/>
        <path id="Path_290" data-name="Path 290" d="M1430.468,731.782c.07-.07.226-.117.3-.257-.312-.078-.506-.125-.506-.125l-1.557.592A3.046,3.046,0,0,0,1430.468,731.782Z" transform="translate(-1364.214 -719.94)" fill="#a73e03"/>
        <path id="Path_291" data-name="Path 291" d="M1351.769,856.41c.265-2.43.312-3.224.312-3.224s.218-.693-2,.07a84.609,84.609,0,0,1-8.223,2.3c-.685.047-2.04-.584-2.414.9s1.261,3.808,1.261,3.808l3.294-1.051s5.272-1.394,5.615-.748a1.7,1.7,0,0,1,.094,1.651,11.157,11.157,0,0,1-.794,1.23l-3.208,2.764,6.689-1.705A21.539,21.539,0,0,1,1351.769,856.41Z" transform="translate(-1281.856 -831.977)" fill="#a73e03"/>
      </g>
      <g id="Group_23" data-name="Group 23" transform="translate(21.639 3.208)">
        <path id="Path_292" data-name="Path 292" d="M468.145,930.38l-1.9-.981-.74.156-.4,2,.382,2.149.592.8a1.78,1.78,0,0,0,1.628.662c1.09-.109,1.783-2.017,1.923-2.9a7.338,7.338,0,0,0-.109-2.118l-.023-1.254A6.674,6.674,0,0,1,468.145,930.38Z" transform="translate(-463.302 -901.816)" fill="#ffcc4f"/>
        <path id="Path_293" data-name="Path 293" d="M547.743,581.393c-1.238.132-4.244,1.962-4.337,1.955s-8.854,3.6-8.854,3.6l-3.5,3.177-6.121-.312-1.752,1.83s-2.009-.054-2.188-.054-5.007,1.954-5.28,1.978-6.214,2.453-6.214,2.453a4.772,4.772,0,0,0,.4.693,6.394,6.394,0,0,0,1.215,1.55c.639.537.28.257.483-.421a1.35,1.35,0,0,0-.382-1.238c1.16-1.044,4.7-2.11,4.7-2.11l-.974,1a9.21,9.21,0,0,0-.8,1.635c.164.008.351.016.561.031.109-.086.226-.187.366-.311a13.466,13.466,0,0,1,5.412-2.578l-.459.561h2.219l2.2-1.433s.677-.693.857-.678,4.423.125,4.423.125,2.11.249,2.336-.607,1.55-1.822,1.729-2.009a7.375,7.375,0,0,1,1.822-.311,24.781,24.781,0,0,0,2.819-2.484c.771-.919,4.641-1.191,7.429-3.037s8.551-2.85,8.551-2.85l-.927-.452C553.5,581.089,548.981,581.26,547.743,581.393Z" transform="translate(-504.245 -581.097)" fill="#ffcc4f"/>
        <path id="Path_294" data-name="Path 294" d="M451.92,786.641c-.086-.008-.164-.008-.226-.016-1.02-.062-.428.086-.576.21s-2.033,1.409-2.173,1.627a6.535,6.535,0,0,0,.156,1.97c.1.732-1.145,2.78-1.145,2.78l.218,2.165.016.833c.475.389.35.942.031,1.472l.023,1.254a7.366,7.366,0,0,1,.109,2.118c-.14.888-.841,2.788-1.923,2.9a1.8,1.8,0,0,1-1.628-.662l-.592-.8-.382-2.149.4-2,.74-.156,1.9.981a6.828,6.828,0,0,0,1.355-1.479l-.031-1.472a2.33,2.33,0,0,0-1.044-.4c-3.224-.553-3.13-2.944-3.13-2.944l-.584.592a14.008,14.008,0,0,1-.273,1.986,5.863,5.863,0,0,0-1.145,1.238c-.023.133.023,6.829.023,6.829l.833,1.5s1.456.452,3.053.9,1.573-.491,1.705-.716a10.734,10.734,0,0,1,1.651-1.059l.973-.132s.382.031.825.039a6.582,6.582,0,0,1,1.262-.179c.031-.054.008-.117-.078-.2-.607-.561-.81-3.73-.81-3.73s1.308-9.555,1.947-10.754a8.485,8.485,0,0,1,2.5-2.352s-2.071-.1-3.411-.164C451.928,787.109,451.827,786.976,451.92,786.641Z" transform="translate(-442.016 -770.607)" fill="#ffcc4f"/>
        <path id="Path_295" data-name="Path 295" d="M521.3,910l.031,1.472C521.65,910.942,521.775,910.382,521.3,910Z" transform="translate(-515.126 -884.388)" fill="#ffcc4f"/>
        <path id="Path_296" data-name="Path 296" d="M569.4,787.031c-.21-.008-.4-.023-.561-.031C568.743,787.335,568.844,787.467,569.4,787.031Z" transform="translate(-558.932 -770.966)" fill="#ffcc4f"/>
        <path id="Path_297" data-name="Path 297" d="M530.444,1008.433a8.432,8.432,0,0,0-2.344.981l.023,1.067h2.539a13.492,13.492,0,0,1,1.191-1.1c.428-.311,6.183-.436,6.183-.436s-1.3-.374-1.355-.374-3.839-.226-3.839-.226a4.7,4.7,0,0,0-1.137-.094C531.612,1008.425,530.989,1008.448,530.444,1008.433Z" transform="translate(-521.396 -974.987)" fill="#ffcc4f"/>
        <path id="Path_298" data-name="Path 298" d="M559.461,1008.3a6.567,6.567,0,0,0-1.262.179C558.745,1008.495,559.368,1008.471,559.461,1008.3Z" transform="translate(-549.152 -975.033)" fill="#ffcc4f"/>
        <path id="Path_299" data-name="Path 299" d="M1029.341,731.169c-.654-.226-4.345.475-4.345.475s-.358.911,2.188.864S1029.995,731.387,1029.341,731.169Z" transform="translate(-979.582 -719.441)" fill="#ffcc4f"/>
        <ellipse id="Ellipse_7" data-name="Ellipse 7" cx="0.452" cy="0.234" rx="0.452" ry="0.234" transform="translate(50.343 12.281)" fill="#ffcc4f"/>
        <path id="Path_300" data-name="Path 300" d="M1104.207,740.32c-.794.6-.732.973-1.145,1.9a7.683,7.683,0,0,0-.639,2.2,12.463,12.463,0,0,0-.148,2.173l.786.958a3.426,3.426,0,0,0,1.519-.171c.491-.273,1.106-2,1.106-2s-2.126,2.064-1.838-1.152,3.87-5.529,3.87-5.529l-1.721.234C1106,738.941,1105,739.728,1104.207,740.32Z" transform="translate(-1050.858 -726.427)" fill="#ffcc4f"/>
        <path id="Path_301" data-name="Path 301" d="M1229.814,614.464s.763-.374.436-.366-1.44.187-1.44.187-.179-.2-.677.265a9.995,9.995,0,0,0-1.324,1.752c-.187.311-.709,1.744-.709,1.744a5.69,5.69,0,0,0-.529,2.064c.1.639.3,2.18.3,2.18s.093.537.459.436.483-.857.483-.857a17.845,17.845,0,0,1,.81-4.337A15.378,15.378,0,0,1,1229.814,614.464Z" transform="translate(-1164.543 -611.529)" fill="#ffcc4f"/>
        <path id="Path_302" data-name="Path 302" d="M1274.431,684.6Z" transform="translate(-1209.603 -676.54)" fill="#ffcc4f"/>
        <path id="Path_303" data-name="Path 303" d="M1277.654,672.88a1.429,1.429,0,0,1,.919,1.394l-.226.584-1.448.654a1.649,1.649,0,0,0,1.34.288,3.552,3.552,0,0,0,1.067-.3c.335-.132.537-.21.654-.249s.156.093.179-.693.109-1.02-.179-1.542.195-.506-.561-.787a3.6,3.6,0,0,0-1.464-.459,12.329,12.329,0,0,0-2.032-.288,4.366,4.366,0,0,0-1.16.195c-.14.086-.242.8-.242.818A8.814,8.814,0,0,1,1277.654,672.88Z" transform="translate(-1209.673 -664.438)" fill="#ffcc4f"/>
        <path id="Path_304" data-name="Path 304" d="M1346.726,714.44c-.405-.148-1.41-.506-1.464-.506-.078,0-1.5-.234-1.5-.234a5.692,5.692,0,0,0-1,.436c-.187.156-.171.14-.763.4a7.292,7.292,0,0,1-1.9.327s-1.2.989-.421,1a17.325,17.325,0,0,0,2.936-.615s1.347-.039,1.6-.343-.171-.452-.171-.452A12.746,12.746,0,0,1,1346.726,714.44Z" transform="translate(-1269.541 -703.374)" fill="#ffcc4f"/>
        <path id="Path_305" data-name="Path 305" d="M1433.262,723.123a.528.528,0,0,0-.062-.023C1433.371,723.17,1433.434,723.193,1433.262,723.123Z" transform="translate(-1356.015 -712.042)" fill="#ffcc4f"/>
        <path id="Path_306" data-name="Path 306" d="M1301.733,765.478s1.729.35.576-.53a2.319,2.319,0,0,1-1.09-1.845c.506.716,1.768.28,1.986-1.705s-1.168-2.2-1.168-2.2c.4-.935,2.336-1.083,2.336-1.083l-1.674-.031a4.057,4.057,0,0,0-1.643,0c-1.215.156-.74.249-1.192.818a6.866,6.866,0,0,0-.981,2.974c-.031.865.452.709,1.269,2.032A3.493,3.493,0,0,0,1301.733,765.478Z" transform="translate(-1232.156 -744.234)" fill="#ffcc4f"/>
        <circle id="Ellipse_8" data-name="Ellipse 8" cx="0.623" cy="0.623" r="0.623" transform="translate(71.477 16.68)" fill="#ffcc4f"/>
        <path id="Path_307" data-name="Path 307" d="M1324.933,979.421c-.062.132-1.433,3.5-1.433,3.5l1.807-.568.747-1.721,3.387-1.736C1329.441,978.891,1325,979.28,1324.933,979.421Z" transform="translate(-1254.857 -947.921)" fill="#ffcc4f"/>
      </g>
      <g id="Group_24" data-name="Group 24" transform="translate(24.111 5.778)">
        <path id="Path_308" data-name="Path 308" d="M958.1,614.1H945.5l-5.677,2.336-.919,4.228h14.951Z" transform="translate(-902.695 -614.1)" fill="#fff"/>
        <path id="Path_309" data-name="Path 309" d="M1299.174,618.817c-.413-.156-2.04-.911-2.04-.911l-.631-.942s-2.92-1.464-3.076-1.464a5.268,5.268,0,0,0-.927.428l1.6,4.12s2.063.382,2.445,1.589a3.33,3.33,0,0,1-.381,2.445l3-.125.132-.226,2.134-.125.047-.919s-1.441-3.177-1.464-3.193A2.7,2.7,0,0,0,1299.174,618.817Z" transform="translate(-1228.759 -615.391)" fill="#fff"/>
        <path id="Path_310" data-name="Path 310" d="M718.932,724.2H706.823l-.623,2.258h9.461Z" transform="translate(-688.116 -715.626)" fill="#fff"/>
        <path id="Path_311" data-name="Path 311" d="M566.2,807.744c-1.589-.273-15.691-.444-15.691-.444a18.846,18.846,0,0,0-1.978,1.814c-.343.483-.857,7.343-.857,7.343l-.078,1.783a8.26,8.26,0,0,0,.646,2.2c.312.343,6.549.818,6.549.818s5.3-.117,5.42-.187,2.251-.226,2.251-.226l2.305-6.573,2.578-5.615C567.348,808.647,567.8,808.016,566.2,807.744Z" transform="translate(-541.866 -792.255)" fill="#fff"/>
        <path id="Path_312" data-name="Path 312" d="M476.6,786.9c-1.441.016-2.531.678-2.616,1.705a20.581,20.581,0,0,0,.21,3.232l1.861,1.752a1.394,1.394,0,0,0,1.6-.257c.927-.7.927-3.808.927-3.808C478.661,789.516,478.046,786.884,476.6,786.9Z" transform="translate(-473.971 -773.443)" fill="#fff"/>
        <path id="Path_313" data-name="Path 313" d="M476.378,929.8l-.078,1.02s.07,3.38,1.48,3.73,1.542-1.659,1.542-1.659l-.093-1.316Z" transform="translate(-476.119 -905.216)" fill="#fff"/>
        <path id="Path_314" data-name="Path 314" d="M795.829,944.527s-2.959-.226-5.778-.537a47.15,47.15,0,0,1-5.77-1.153c-.974-.179-2.064-.716-2.694-.506s-2.367.7-2.367.7-1.721,1.6-1.051,3.021a3.9,3.9,0,0,0,2.095,1.994c.42.226.3.257,2.04.288s8.885.42,8.885.42a22.851,22.851,0,0,1,2.64-.615,3.335,3.335,0,0,0,1.76-.7c.405-.273,1.036-.21.826-1.152A9.781,9.781,0,0,0,795.829,944.527Z" transform="translate(-754.336 -916.727)" fill="#fff"/>
        <path id="Path_315" data-name="Path 315" d="M844.142,797.113c-.008.047-4.509-.109-5.2-.023s-5.505.607-5.576.662-.654.709-1.1,1.067-1.884,1.861-1.869,2.2-.856.966-.273,1.6c0,0,13.277-.07,15.551-.491s2.585-.927,2.585-.927l.607-4.081C848.869,797.113,844.15,797.074,844.142,797.113Z" transform="translate(-802.206 -782.815)" fill="#fff"/>
        <path id="Path_316" data-name="Path 316" d="M1139.308,803.872s-6.673-2.321-7.725-2.858-3.761,4.377-3.854,4.618c0,0-2.967,13.963-3.17,14.437s2.227,3.037,3.4,3.66,4.345.693,5.5.608a5.585,5.585,0,0,0,3.3-1.215,7.1,7.1,0,0,0,1.775-3.255c.094-.311,3.193-8.317,3.193-8.317l-.639-4.789Z" transform="translate(-1073.885 -786.421)" fill="#fff"/>
        <path id="Path_317" data-name="Path 317" d="M1505.42,818.138a2.2,2.2,0,0,0-2.172,1.69,4.464,4.464,0,0,1-.07,1.635c-.2.989-.382,3.933-.608,5.755s-.023,2.087.047,2.235.4,2.321.4,2.321l1.518.607a3.879,3.879,0,0,0,2.118-3.216C1506.97,826.673,1506.946,818.255,1505.42,818.138Z" transform="translate(-1422.375 -802.245)" fill="#fff"/>
      </g>
      <g id="Group_25" data-name="Group 25" transform="translate(25.097 20.635)">
        <path id="Path_318" data-name="Path 318" d="M1138.989,835.537l-1.526,3.029,3.052-1.347s2.757.748,3.239.927a28.735,28.735,0,0,1,3.03,2.788l.062,3.738a21.252,21.252,0,0,1-.483,2.64c-.14.35-.95,1.628-1.526,2.523h0c-.311.475-.561.841-.6.9a7.934,7.934,0,0,1-3.987,1.106,13,13,0,0,1-3.567-1.472l-1.768-.273s-.272,3.247,1.02,3.621c0,0,11.665,1.916,12.522-8.768S1138.989,835.537,1138.989,835.537Z" transform="translate(-1084.41 -833.115)" fill="#afcfcc"/>
        <path id="Path_319" data-name="Path 319" d="M1169.248,970.436s.553-1.036.6-1.121.343-.732.343-.732a3.507,3.507,0,0,0-2.656-1.129,7.2,7.2,0,0,0-1.97.537c-.008,0-.008.008-.016.008a4.131,4.131,0,0,0-.444.218l-1.495-.506s.132-.693-.647-.265l-2.064,1.137s1.635-.685,2.079.094-1.643,3.309-1.643,3.309l.755.39,1.62-2.336s.537-.389.794.452a4.8,4.8,0,0,1-.358,2.367l.646.288.9.031.094-.794-.226-2.967s-.374-.584.226-.662a2,2,0,0,1,1.9,1.6,2.109,2.109,0,0,1-.132,1.752l1.269-.7h0Z" transform="translate(-1108.393 -954.667)" fill="#afcfcc"/>
        <path id="Path_320" data-name="Path 320" d="M1262.5,1019.7Z" transform="translate(-1202.081 -1002.981)" fill="#afcfcc"/>
        <path id="Path_321" data-name="Path 321" d="M1164.9,872.516a14.113,14.113,0,0,0,1.651-.163c.257-.1,1.067-.117,1.152-.273a4.258,4.258,0,0,0,.241-.584l-.078-.857a4.685,4.685,0,0,1-2.4.537c-.927-.21.241-.942.241-.942s.491-1.215.717-1.737.81-.927.374-1.082a2.784,2.784,0,0,1-.872-.584s-.241,2.484-1.69,3.582-.4.163-.436-.452a8.156,8.156,0,0,0-.506-2.562,7.451,7.451,0,0,0-.958-2.11,12.388,12.388,0,0,0-1.23.179s1.721,2.936,1.542,4.82-.841-.569-.9-.779-1.363-2.258-1.363-2.258-.717-.553-1.035-.467-.468-.078-.685.506a.761.761,0,0,0,.272.911,6.13,6.13,0,0,1,2.453,2.679c.49,1.526-.506.163-.584.163s-1.83-.88-1.83-.88-.023-.927-.374-.179a5.355,5.355,0,0,0-.4,1.09,2.422,2.422,0,0,0,2.71.81c1.612-.483.389,1.191.521,1.316a1.173,1.173,0,0,0,1.612.7h0c.008,0,.008-.008.016-.008A4.834,4.834,0,0,0,1164.9,872.516Z" transform="translate(-1105.903 -860.594)" fill="#afcfcc"/>
        <path id="Path_322" data-name="Path 322" d="M1220.5,976.008c.008,0,.008-.008.016-.008C1220.508,976,1220.5,976,1220.5,976.008Z" transform="translate(-1163.352 -962.684)" fill="#afcfcc"/>
        <path id="Path_323" data-name="Path 323" d="M1511.6,959.427c0,.008.008.016.015.031C1511.608,959.427,1511.6,959.412,1511.6,959.427Z" transform="translate(-1431.783 -947.396)" fill="#afcfcc"/>
        <path id="Path_324" data-name="Path 324" d="M1511.839,959.954c-.015-.023-.031-.039-.039-.054C1511.823,959.97,1511.862,960.11,1511.839,959.954Z" transform="translate(-1431.968 -947.837)" fill="#afcfcc"/>
        <path id="Path_325" data-name="Path 325" d="M1513.957,858.47l-.786,1.978.078-1.425.125-3.31s.382-1.23-.475-1.075-1.129,2.2-1.129,2.2l.218.2a11.206,11.206,0,0,0-.319,2.928,3.492,3.492,0,0,0,.989,2.118s-.2.054-.3.078-1.059-.475-.919.35c.031.187.047.3.055.358.179.234.724.841.724.841s1.3.428,1.744-1.394A9.869,9.869,0,0,0,1513.957,858.47Z" transform="translate(-1431.618 -850.76)" fill="#afcfcc"/>
        <path id="Path_326" data-name="Path 326" d="M864.094,822.161c.709.226,1.986.74,1.986.74v-1.784a11.663,11.663,0,0,1-3.216-.07c-.888-.3-.171-1.347-.171-1.347l-.966,1.059-.327.989.639-.047A17.972,17.972,0,0,1,864.094,822.161Z" transform="translate(-832.215 -818.555)" fill="#afcfcc"/>
        <path id="Path_327" data-name="Path 327" d="M951.738,809.977s1.09-.1,1.246-.732.023-1.565-.436-1.8-1.16-.234-1.363.093-.327.374-.389.615-.2.21-.148.654S950.765,809.985,951.738,809.977Z" transform="translate(-914.502 -807.104)" fill="#afcfcc"/>
        <path id="Path_328" data-name="Path 328" d="M1014.6,805.078l-1.316-.078-.888.981a6.786,6.786,0,0,0,.576,1.6c.553,1.269,1.012.335,1.293.249s.553-.374.716-1.332A1.5,1.5,0,0,0,1014.6,805.078Z" transform="translate(-971.457 -805)" fill="#afcfcc"/>
        <path id="Path_329" data-name="Path 329" d="M508.174,806.7l-.677.008-.413.452a3.581,3.581,0,0,0-.576,2.936c.413,1.729,1.441.257,1.441.257a2.68,2.68,0,0,0,.514-1.246c.039-.631-.008-1.822-.008-1.822Z" transform="translate(-504.866 -806.568)" fill="#afcfcc"/>
        <path id="Path_330" data-name="Path 330" d="M813.536,951.955c-2.251.172-1.6.335-3.7.413s-1.962.023-4.322-.008-5.147-.374-5.147-.374l-.382-.389-.584-1a3.267,3.267,0,0,0-.537,3.847c1.246,2.017,6.214,1.884,6.245,1.884s6.6-.615,7.18-.607,1.5-.055,1.5-.055,1.114.008,1.145-.631a7.858,7.858,0,0,0-.3-1.931C814.533,952.625,815.786,951.784,813.536,951.955Z" transform="translate(-774.142 -939.262)" fill="#afcfcc"/>
        <path id="Path_331" data-name="Path 331" d="M488.336,946.378a12.446,12.446,0,0,0-1.176-.522l-.506-.857s-.218,1.713.537,2.406a1.2,1.2,0,0,0,1.433.273l.132-.825A1.011,1.011,0,0,0,488.336,946.378Z" transform="translate(-486.625 -934.098)" fill="#afcfcc"/>
      </g>
      <g id="Group_26" data-name="Group 26" transform="translate(19.802 2.067)">
        <path id="Path_332" data-name="Path 332" d="M537.815,1017.294l-1.215.989s10.583-.093,14.336.537,4.291,1.441,5.28,1.464a37.471,37.471,0,0,0-3.193-2C551.925,1017.722,542.736,1016.974,537.815,1017.294Z" transform="translate(-527.414 -982.114)" fill="none"/>
        <path id="Path_333" data-name="Path 333" d="M552.463,943.641l-.763-.841s.148,1.861.927,2.352,2.936.4,5.6.5,6.962-.094,6.962-.094-8.27-.241-10.411-.452S552.463,943.641,552.463,943.641Z" transform="translate(-541.338 -913.492)" fill="none"/>
        <path id="Path_334" data-name="Path 334" d="M491.182,794.92a3.8,3.8,0,0,0-.4,3.014c.514,1.635,1.581,1.1,1.6.257,0,0-.755-.179-.685-1.246s1.036-1.6,1.1-1.044c0,0,.226-.888-.179-.958s-1.176,1.6-1.176,1.6a2.955,2.955,0,0,1,1-2.57s-.195-.631-1.137-.413-1.192,2.663-1.192,2.663A1.891,1.891,0,0,1,491.182,794.92Z" transform="translate(-484.535 -775.829)" fill="none"/>
        <path id="Path_335" data-name="Path 335" d="M717.913,729.856l-.413.436s7.593.327,7.974.257a26.074,26.074,0,0,0,2.749-1.55H726.6a13,13,0,0,1-2.383.966C723.527,730.067,717.913,729.856,717.913,729.856Z" transform="translate(-694.227 -716.341)" fill="none"/>
        <path id="Path_336" data-name="Path 336" d="M522.391,756.448a22.566,22.566,0,0,1,4.322-3.348s-3.652.537-5.513,2.032A1.527,1.527,0,0,1,522.391,756.448Z" transform="translate(-513.213 -738.564)" fill="none"/>
        <path id="Path_337" data-name="Path 337" d="M581.1,605.767l15.177.132a29.371,29.371,0,0,0-3.761-.779c-1.947-.257-7.382-.506-7.382-.506s8.418-.226,14.858.343l4.9-2.92a8.762,8.762,0,0,0-2.453.857c-1.082.615-1.721,1.246-2.609,1.3s-11.548-.452-11.548-.452l3.146-3.014h38.017a.741.741,0,0,0,.615-.483c.195-.467,1.737-7.172,4.423-7.943s7.367,1.55,13.464,7.421c0,0-6.175-7.686-11.354-8.285s-14.157-1.083-20.838-.148-15.816,5.155-18.962,8.628h-5.84l-3.356,3.037.389-1a15.085,15.085,0,0,0-4.2,1.5A6.308,6.308,0,0,0,581.1,605.767Zm30.939-12.88c4.921-1.526,20.332-.358,20.332-.358-1.682,1.6-3.037,7.055-4.065,7.367s-29.568.226-29.568.226C599.813,597.707,607.117,594.413,612.039,592.887Z" transform="translate(-568.448 -588.872)" fill="none"/>
        <path id="Path_338" data-name="Path 338" d="M588.936,813.541c-3.6-.615-14.679-.6-15.909-.421s-1.526,1.69-1.526,1.69c.989-1.456,3.909-1.394,7.818-1.261s8.5.467,8.5.467a13.423,13.423,0,0,0-1.121,4.781A17.056,17.056,0,0,1,588.936,813.541Z" transform="translate(-559.596 -793.811)" fill="none"/>
        <path id="Path_339" data-name="Path 339" d="M997.253,801.8a.911.911,0,0,1,.5,1.176s.039-.662-.911-.716a1.106,1.106,0,0,0-.709,1.908,1.361,1.361,0,0,0,1.5-.023,1.489,1.489,0,0,1-2.928-.078,2.147,2.147,0,0,1,.63-2.227l-1.012.039a2.37,2.37,0,0,0,2.749,3.753c2.531-1.02,1.285-3.831,1.285-3.831Z" transform="translate(-948.944 -783.472)" fill="none"/>
        <path id="Path_340" data-name="Path 340" d="M496.528,746.563a24.364,24.364,0,0,0,4.057-.436c1.152-.343,1.885-1.409,2.173-3.5a30.075,30.075,0,0,1,.787-3.816s-4.47,0-8.114.07-9.547,1.082-8.581-.3,5.529-3.481,5.529-3.481c-8.511,1.09-13.363,12.179-13.363,12.179a51.48,51.48,0,0,1,2.757-6.082c.21-.662.6-1.153-1.83-1.316s-16.415-.452-18.082-.21a4,4,0,0,0-2.546,1.511,8.191,8.191,0,0,1-.047,2.305,7.017,7.017,0,0,1-.934,2.663c.132,2.874.561,9.539-1.713,9.539s-2.352-4.33-2.352-4.33c-1.036,3.551,1.285,5.046,1.285,5.046a2.856,2.856,0,0,1-1.869-1.363,16.113,16.113,0,0,1-.257-5.615c.273-.327,4.073-.117,4.073-.117l.016-2.289a5.024,5.024,0,0,1-1.861-.164,2.347,2.347,0,0,1-1.83-1.48,3.393,3.393,0,0,0-.047,1.947c.343.646,3.224,1,3.224,1-1.737.4-3.847-.273-4.2.21s.078,7.281.467,8.145,2.936.615,3.629.537,1.184-1.557,2.157-1.705,13.737.312,15.177.389,1.557.132,3.442,1.441,2.064,2.352,12.865,2.562,12.6-1.869,12.6-1.869c-3.224,1.067-8.029.615-8.029.615s7.312-.748,7.429-2.251-.763-1.6-2.383-2.141-.646-1.635-3.629-3.94-11.338-1.768-11.338-1.768c4.976-.748,13.269-.678,14.951,1.62a5.049,5.049,0,0,0,3.894,2.235s-.685-.81-2.3-3.146C500.125,746.921,496.528,746.563,496.528,746.563Zm-21.267,8.021c-1.215.9-10.988.132-13.347-.156s-2.36-.584-2.718-2.741.428-6.7.428-6.7.4-3.886,2.609-4.47,18.09-.023,18.315.607-.4,1.347-1.347,3.255S476.468,753.68,475.261,754.584Zm20.223-3.6c1.371.763,2.087,3.029,1.262,5.373s-6.471,1.682-10.155,1.776-7.437-.039-8.34-1.082a5.386,5.386,0,0,1-.81-3.115,9.7,9.7,0,0,0-.537,1.752s-.311-4,1.8-5.03C480.805,749.615,494.114,750.223,495.484,750.986Zm-14.562-5.031c.094-.958,3.1-5.342,4.446-5.731s15.707-.9,16.423-.382-.382,5.186-1.8,5.482C498.436,745.652,480.829,746.905,480.922,745.955Z" transform="translate(-450.025 -721.966)" fill="none"/>
        <path id="Path_341" data-name="Path 341" d="M788.243,953.941c-1.067-1.394.265-3.341.265-3.341a2.606,2.606,0,0,0-1.908,2.64c0,2.2,2.772,2.694,9.033,2.554s7.8-.234,7.881-2.554c0,0-.257,1.168-2.694,1.479C798.366,955.031,789.3,955.335,788.243,953.941Z" transform="translate(-757.946 -920.685)" fill="none"/>
        <path id="Path_342" data-name="Path 342" d="M935.119,804.332a.675.675,0,0,0-.242-.717l-.833-.016s.382.179.374,1.028c0,0-.841-.833-1.518-.148s-.094,2.508,1.339,1.729c0,0,.055,1.3-1.573.864s-1.534-2.508-.553-3.349l-1.044.055a3.253,3.253,0,0,0-.491,2.43c.226,1.55,1.885,1.877,3.115,1.55a2.409,2.409,0,0,0,1.6-1.16A2.141,2.141,0,0,1,935.119,804.332Z" transform="translate(-890.672 -785.132)" fill="none"/>
        <path id="Path_343" data-name="Path 343" d="M839.013,806.389A15.343,15.343,0,0,0,836,810.369h4.509s-2.632-.179-3.146-.693,1.923-2.609,1.923-2.609-.88.935-.833,1.55,4.034.335,4.034.335A5.946,5.946,0,0,1,843.04,806C843.032,806,839.683,806,839.013,806.389Z" transform="translate(-803.499 -787.345)" fill="none"/>
        <path id="Path_344" data-name="Path 344" d="M1351.087,721.476a22.1,22.1,0,0,0-3.162-.179s.537.195.405.444-3.73.444-3.73.444l7.655-.117A1.931,1.931,0,0,0,1351.087,721.476Z" transform="translate(-1272.493 -709.237)" fill="none"/>
        <path id="Path_345" data-name="Path 345" d="M1237.623,618s-4.2.833-3.232,7.616C1234.392,625.616,1234.469,619.433,1237.623,618Z" transform="translate(-1170.734 -613.985)" fill="none"/>
        <path id="Path_346" data-name="Path 346" d="M1254.308,679.783s1.729.125,2-.272a2.045,2.045,0,0,0-.35-2.165c-.631-.88-3.7-1.16-4.143-1.044s-.53,1.721-.53,1.721H1249.2s-.008.989.257,1.09,4.875.561,5.248-.428-1.6-1.7-1.6-1.7c1.55-.008,2.71.888,2.687,1.783S1254.308,679.783,1254.308,679.783Z" transform="translate(-1184.522 -667.724)" fill="none"/>
        <path id="Path_347" data-name="Path 347" d="M1302.2,627.744a2.2,2.2,0,0,1-.358,2.064h1.752l-2.352-6.23A9.153,9.153,0,0,0,1298,622.2l1.542,3.722S1301.808,626.514,1302.2,627.744Z" transform="translate(-1229.522 -617.858)" fill="none"/>
        <path id="Path_348" data-name="Path 348" d="M1368.421,658.616l-1.729-4.314a6,6,0,0,0-1.293-.8l1.776,5.116Z" transform="translate(-1291.673 -646.72)" fill="none"/>
        <path id="Path_349" data-name="Path 349" d="M1429.5,747.686a3.921,3.921,0,0,0-3.4-1.191s1.472,4.322,1.036,7.11c0,0,1.783-2.414,1.316-4.719,0,0,1,1.2.88,2.064C1429.34,750.957,1430.8,749.236,1429.5,747.686Z" transform="translate(-1347.647 -732.442)" fill="none"/>
        <path id="Path_350" data-name="Path 350" d="M1431.612,650.619V649.7h-.545l-.763.506h-6l.35.413Z" transform="translate(-1345.987 -643.216)" fill="none"/>
        <path id="Path_351" data-name="Path 351" d="M972.661,625.694l4.657-5.794h-4.345l-1.962,1.869s-.241-.989-1.511-.615-1.885,2.562-.7,2.835l-1.8,1.705Z" transform="translate(-924.298 -615.737)" fill="none"/>
        <path id="Path_352" data-name="Path 352" d="M1088.885,625.694l4.439-5.794h-1.83L1087,625.694Z" transform="translate(-1034.953 -615.737)" fill="none"/>
        <path id="Path_353" data-name="Path 353" d="M1466.292,671.1l-.592,2.344.3.288.615-2.632Z" transform="translate(-1384.163 -662.95)" fill="none"/>
        <path id="Path_354" data-name="Path 354" d="M486.532,948.224c.732.031.911-.9.911-.9s-.389.576-1.121,0-.693-2.328-.693-2.328C485.247,946.752,485.8,948.193,486.532,948.224Z" transform="translate(-480.297 -915.521)" fill="none"/>
        <path id="Path_355" data-name="Path 355" d="M1438.515,675.3h-.615l.421.53Z" transform="translate(-1358.528 -666.823)" fill="none"/>
        <path id="Path_356" data-name="Path 356" d="M1456.536,671.1l-.436,1.76.35.312.522-2.071Z" transform="translate(-1375.311 -662.95)" fill="none"/>
        <path id="Path_357" data-name="Path 357" d="M1532.906,640.806V639.28l1-.273-1.511-.607v2.7l1.846,1.246Z" transform="translate(-1445.669 -632.796)" fill="none"/>
        <path id="Path_358" data-name="Path 358" d="M1492.343,761.314s-1.215-.335-1.5,1.6a3.661,3.661,0,0,1,2.313-1.121,15.4,15.4,0,0,0-.46-2.079,12.229,12.229,0,0,0-2.165-.81,6.43,6.43,0,0,0-1.729,3.605s.732-2.009,2.227-2.079S1492.343,761.314,1492.343,761.314Z" transform="translate(-1405.464 -743.913)" fill="none"/>
        <path id="Path_359" data-name="Path 359" d="M1524.723,895.775c-.047-.1-.623-.062-.623-.062a1.459,1.459,0,0,1,0,.615l.623.7A11.158,11.158,0,0,0,1524.723,895.775Z" transform="translate(-1438.015 -870.065)" fill="none"/>
        <path id="Path_360" data-name="Path 360" d="M1520.6,911.388a10.444,10.444,0,0,0,.133-1.269,1.671,1.671,0,0,1-.911-.919C1519.738,910.072,1520.532,911.567,1520.6,911.388Z" transform="translate(-1434.066 -882.509)" fill="none"/>
        <path id="Path_361" data-name="Path 361" d="M1400.455,930.9s-.156.709-1.667,1.721a17.133,17.133,0,0,1-4.088,1.721s4.112-.779,4.945-1.472A2.773,2.773,0,0,0,1400.455,930.9Z" transform="translate(-1318.691 -902.519)" fill="none"/>
        <path id="Path_362" data-name="Path 362" d="M1321.152,754.072a22.9,22.9,0,0,0-.428-4.688c-.452-1.643-2.507-1.651-2.507-1.651l2.048-.078-.2-.755-7.561.125,4.423.841a10.046,10.046,0,0,0-3.325.569c-1.02.537-2.29,4.018,1.814,6.23C1319.524,756.891,1321.152,754.072,1321.152,754.072Z" transform="translate(-1242.893 -732.847)" fill="none"/>
        <path id="Path_363" data-name="Path 363" d="M1339.25,869.91l8.356-.724a27.716,27.716,0,0,0-8.4,3.076s7.39-1.845,8.535-1.417.428,2.726-.763,3.855-9.259,2.7-9.259,2.7l-.716,1.8,12.156-4.408s-.381-5.817.4-7.593Z" transform="translate(-1265.485 -843.779)" fill="none"/>
        <path id="Path_364" data-name="Path 364" d="M1009.2,738.288c-1.012,1.191-1.012,3.823-1.012,3.823,1.8-5.638,6.276-5.576,6.276-5.576-.88-1.09-3.053-.763-3.053-.763a5.273,5.273,0,0,1,3.605-.109c2.009.639,2.718,3.4,2.718,3.4a2.893,2.893,0,0,1,.989.584,7.077,7.077,0,0,0-4.641-5.373c-2.873-.794-8.044-.639-12.148-.491s-6.315,1.16-5.934,1.845,3.909.787,5.474.615,1.347-.156,3.349-1.192a12,12,0,0,1,4.852-.989c-4.283.755-5.3,6.681-4.844,7.515s1.145.74,1.955-.9A5.635,5.635,0,0,1,1009.2,738.288Z" transform="translate(-950.999 -720.637)" fill="none"/>
        <path id="Path_365" data-name="Path 365" d="M1560.2,840a15.114,15.114,0,0,1,.374,3.823s.553-.311.553-.483.047-2.624,0-2.741A4.865,4.865,0,0,0,1560.2,840Z" transform="translate(-1471.304 -818.697)" fill="none"/>
        <path id="Path_366" data-name="Path 366" d="M1520.209,823.337c-1.043-.21-1.191,1.145-1.191,1.145s.709-1.121,1.4.685.537,6.993-.063,8.239-1.557.794-1.557.794c.825,1.036,1.379.358,1.379.358-.506,1.09-1.379.716-1.379.716s.833,2.881,2.009-1.043S1521.253,823.548,1520.209,823.337Z" transform="translate(-1433.128 -803.312)" fill="none"/>
        <path id="Path_367" data-name="Path 367" d="M1150.725,818.2c-1.082.584-1.5,2.609-1.5,2.609,1.752-.491,5.209-.405,7.234,1.955s2.336,9.866-1.861,12.561-8.2-.4-8.2-.4a15.462,15.462,0,0,1-.3,2.025c1.036,1.3,11.548,5.529,13.573-6.565S1150.725,818.2,1150.725,818.2Z" transform="translate(-1089.451 -798.595)" fill="none"/>
        <path id="Path_368" data-name="Path 368" d="M1514.876,925.526a1.1,1.1,0,0,0,.7-.421,4.02,4.02,0,0,1-1.051-1.705S1514.4,925.6,1514.876,925.526Z" transform="translate(-1429.172 -895.603)" fill="none"/>
        <path id="Path_369" data-name="Path 369" d="M1516.523,849.687c-.506.039-.623,2.609-.623,2.609s.413-1.355,1.083-1.643C1516.99,850.652,1517.037,849.648,1516.523,849.687Z" transform="translate(-1430.454 -827.629)" fill="none"/>
        <path id="Path_370" data-name="Path 370" d="M1522.916,870.3c-.226.023-.716,1.293-.716,1.293l.8.008C1522.994,871.607,1523.134,870.283,1522.916,870.3Z" transform="translate(-1436.263 -846.636)" fill="none"/>
        <path id="Path_371" data-name="Path 371" d="M1160.2,932.7a5.122,5.122,0,0,0,2.281-1.145,5.467,5.467,0,0,1-1.807-1.456Z" transform="translate(-1102.453 -901.781)" fill="none"/>
        <circle id="Ellipse_9" data-name="Ellipse 9" cx="1.02" cy="1.02" r="1.02" transform="translate(61.275 29.316)" fill="none"/>
        <path id="Path_372" data-name="Path 372" d="M1168.935,892.7l-.335,1.853a4.964,4.964,0,0,0,2.313,1.472A5.014,5.014,0,0,0,1168.935,892.7Z" transform="translate(-1110.199 -867.293)" fill="none"/>
        <path id="Path_373" data-name="Path 373" d="M1227.3,873c1.036,1,.662,4.509.662,4.509a4.471,4.471,0,0,0,2.157-2.453A4.191,4.191,0,0,0,1227.3,873Z" transform="translate(-1164.328 -849.128)" fill="none"/>
        <path id="Path_374" data-name="Path 374" d="M1224.59,991.177s2.25-.662,2.616-2.453a8.622,8.622,0,0,0-2.43-1.145C1223.967,987.486,1224.59,991.177,1224.59,991.177Z" transform="translate(-1161.618 -954.783)" fill="none"/>
        <path id="Path_375" data-name="Path 375" d="M1152,979.659a1.711,1.711,0,0,0,1.121,1.168s2.336-2.336,2.43-3.356-2.1-.53-3.356.693C1152.187,978.164,1152.109,979.254,1152,979.659Z" transform="translate(-1094.891 -944.955)" fill="none"/>
        <path id="Path_376" data-name="Path 376" d="M1248.056,914.094a4.67,4.67,0,0,0-.561-2.694,4.22,4.22,0,0,1-2.095,2.8C1247.744,914.515,1248.056,914.094,1248.056,914.094Z" transform="translate(-1181.018 -884.537)" fill="none"/>
        <path id="Path_377" data-name="Path 377" d="M1179.8,871.348a7.225,7.225,0,0,1,2.772,3.271,9.211,9.211,0,0,0-.428-4.057A3.652,3.652,0,0,0,1179.8,871.348Z" transform="translate(-1120.527 -846.868)" fill="none"/>
        <path id="Path_378" data-name="Path 378" d="M1247.915,965.317a12.738,12.738,0,0,0,.545-1.744,4.082,4.082,0,0,0-2.461.381A6.221,6.221,0,0,1,1247.915,965.317Z" transform="translate(-1181.571 -932.599)" fill="none"/>
        <path id="Path_379" data-name="Path 379" d="M1186.5,1000.061s.125-3.271-.553-3.068-1.846,2.788-1.846,2.788A5.608,5.608,0,0,0,1186.5,1000.061Z" transform="translate(-1124.492 -963.457)" fill="none"/>
        <path id="Path_380" data-name="Path 380" d="M510.17,587.376a7.609,7.609,0,0,0-1.472-1.153s-1.067-4.376-1.557-4.781-5.225-3.458-5.225-3.458l.646-2.9h1.768v.568l3.652,2.336v-5.646l-3.637-1.916v1.425H495.2a14.881,14.881,0,0,0-8.558-4.54c-5.326-.74-16.47-1.417-21.75-.2a52.84,52.84,0,0,0-18.736,8.293h-5.373l-2.336,2.064s-10.855,2.227-14.064,4.54-4.244,8.986-4.244,8.986-1.1-.047-1.394.833,0,10.513,1.215,12.288,5.35,1.666,5.576,1.417.631-.678.631-.678,16.54.475,18.4,1.1,1.324,1.394,5.482,1.526,19.343.132,19.343.132,5.529,4.158,11.5,2.741a14.03,14.03,0,0,0,8.558-5.887l10.271-3.574s.039.8,1.612.8,5.256-.078,6.23-2.095a17.331,17.331,0,0,0,1.036-5.677s1.472-1,1.589-1.441A42.755,42.755,0,0,0,510.17,587.376Zm-4.8-15.333,1.511.615-1.012.272v1.526L507.2,576l-1.846-1.254v-2.7Zm-2.414,1.386.755-.5h.545v.919H497.29l-.35-.42Zm-3.512,9.454c.467,2.305-1.316,4.719-1.316,4.719.436-2.788-1.036-7.11-1.036-7.11a3.921,3.921,0,0,1,3.4,1.191c1.3,1.542-.164,3.263-.164,3.263C500.444,584.082,499.44,582.883,499.44,582.883ZM487.222,575.7s1.962.709,1.6,1.7-4.976.529-5.249.428-.257-1.09-.257-1.09H485.4s.078-1.6.53-1.721,3.52.171,4.143,1.044a2.063,2.063,0,0,1,.35,2.165c-.273.389-2,.273-2,.273s1.464-.109,1.487-1.012S488.771,575.688,487.222,575.7Zm-4.929,2.375c-.966-6.783,3.232-7.616,3.232-7.616C482.37,571.888,482.292,578.071,482.292,578.071Zm6.362-3.566-1.542-3.722a9.153,9.153,0,0,1,3.239,1.378l2.352,6.23h-1.752a2.21,2.21,0,0,0,.358-2.064C490.92,575.1,488.654,574.5,488.654,574.5Zm3.7-1.277a5.789,5.789,0,0,1,1.293.8l1.729,4.314h-1.254Zm2.118,5.708c.132-.249-.4-.444-.4-.444a22.163,22.163,0,0,1,3.162.179,2.006,2.006,0,0,1,1.168.584l-7.655.117C490.741,579.379,494.331,579.184,494.471,578.935Zm3.535-4.018h.615l-.195.53Zm1.417,1.433.436-1.76h.436l-.522,2.071Zm1.051.872-.3-.3.592-2.344h.327Zm-62.313,2.305-.389,1,3.356-3.037h5.84c3.146-3.473,12.28-7.7,18.962-8.628s15.652-.452,20.839.148,11.354,8.286,11.354,8.286c-6.1-5.872-10.778-8.192-13.464-7.421s-4.228,7.476-4.423,7.943a.742.742,0,0,1-.615.483H441.6l-3.146,3.014s10.669.506,11.548.452,1.526-.685,2.609-1.3a8.845,8.845,0,0,1,2.453-.857l-4.9,2.912c-6.44-.568-14.858-.343-14.858-.343s5.435.257,7.382.506a29.391,29.391,0,0,1,3.761.779l-15.177-.132a6.233,6.233,0,0,1,2.679-2.3A15.262,15.262,0,0,1,438.162,579.527Zm14.469-.421a26.081,26.081,0,0,1-2.749,1.55c-.382.07-7.974-.257-7.974-.257l.413-.436s5.615.21,6.3.109a12.977,12.977,0,0,0,2.383-.966Zm-20.5,1.877a22.573,22.573,0,0,0-4.322,3.348,1.5,1.5,0,0,0-1.191-1.316C428.491,581.52,432.135,580.983,432.135,580.983ZM425.4,584.16c.942-.21,1.137.413,1.137.413a2.935,2.935,0,0,0-1,2.57s.779-1.667,1.176-1.6.179.958.179.958c-.07-.553-1.036-.023-1.1,1.043s.685,1.246.685,1.246c-.008.841-1.082,1.378-1.6-.257a3.8,3.8,0,0,1,.4-3.014,1.885,1.885,0,0,0-1.082,1.293S424.457,584.37,425.4,584.16Zm16.758,18.985c-3.753-.631-14.336-.537-14.336-.537l1.215-.989c4.922-.312,14.11.428,15.208.981s3.193,2,3.193,2C446.448,604.586,445.91,603.776,442.157,603.145Zm26.609-8.5c-1.674-2.289-9.975-2.367-14.951-1.62,0,0,8.356-.537,11.338,1.768s2.009,3.4,3.629,3.94,2.5.646,2.383,2.142-7.429,2.251-7.429,2.251,4.8.452,8.029-.615c0,0-1.8,2.079-12.6,1.869s-10.98-1.262-12.864-2.562-2.009-1.363-3.442-1.441-14.2-.537-15.177-.389-1.472,1.635-2.157,1.705-3.239.327-3.629-.537-.81-7.67-.467-8.145,2.453.195,4.2-.21c0,0-2.873-.358-3.224-1a3.394,3.394,0,0,1,.047-1.947,2.333,2.333,0,0,0,1.83,1.48,4.785,4.785,0,0,0,1.861.164l-.016,2.289s-3.808-.21-4.073.117a15.921,15.921,0,0,0,.257,5.615,2.872,2.872,0,0,0,1.869,1.363s-2.321-1.5-1.285-5.046c0,0,.078,4.33,2.352,4.33s1.853-6.666,1.713-9.539a7.018,7.018,0,0,0,.934-2.663,8.191,8.191,0,0,0,.047-2.3,3.969,3.969,0,0,1,2.546-1.511c1.666-.242,15.652.047,18.082.21s2.04.662,1.83,1.316a51.485,51.485,0,0,0-2.757,6.082s4.851-11.081,13.363-12.179c0,0-4.563,2.11-5.529,3.481s4.945.358,8.582.3,8.114-.07,8.114-.07a29.678,29.678,0,0,0-.787,3.816c-.288,2.095-1.02,3.162-2.173,3.5a24.363,24.363,0,0,1-4.057.436s3.6.358,5.21,2.694,2.3,3.146,2.3,3.146A5.006,5.006,0,0,1,468.766,594.642Zm-44.107,3.605c.732.576,1.121,0,1.121,0s-.179.935-.911.9-1.277-1.472-.911-3.224C423.958,595.919,423.927,597.671,424.659,598.247Zm47.813-10.879c-.452-.833.561-6.767,4.844-7.515a12,12,0,0,0-4.851.989c-2,1.036-1.783,1.02-3.349,1.192s-5.093.07-5.474-.615,1.83-1.7,5.934-1.846,9.267-.3,12.148.491a7.065,7.065,0,0,1,4.641,5.373,2.889,2.889,0,0,0-.989-.584s-.709-2.749-2.718-3.4a5.328,5.328,0,0,0-3.605.109s2.18-.327,3.053.763c0,0-4.486-.07-6.277,5.576,0,0,0-2.632,1.012-3.823a5.605,5.605,0,0,0-2.406,2.383C473.617,588.116,472.924,588.2,472.473,587.369ZM483.063,597.8a4.08,4.08,0,0,1,2.461-.382,12.782,12.782,0,0,1-.545,1.744A6.218,6.218,0,0,0,483.063,597.8Zm1.16,2.585c-.374,1.783-2.616,2.453-2.616,2.453s-.615-3.683.195-3.6A8.661,8.661,0,0,1,484.223,600.381Zm-1.207-4.283a4.221,4.221,0,0,0,2.095-2.8,4.6,4.6,0,0,1,.561,2.694S485.36,596.417,483.016,596.1Zm-.747-1.277s.374-3.5-.662-4.509a4.192,4.192,0,0,1,2.819,2.056A4.472,4.472,0,0,1,482.269,594.821Zm-.319,1.954a1.02,1.02,0,1,1-1.02-1.02A1.019,1.019,0,0,1,481.95,596.775Zm-3.286-.553a5.121,5.121,0,0,1-2.282,1.145l.475-2.6A5.578,5.578,0,0,0,478.663,596.223Zm-1.628-2.523.335-1.853a4.994,4.994,0,0,1,1.978,3.325A4.965,4.965,0,0,1,477.036,593.7Zm2.258,5.256c-.093,1.02-2.43,3.356-2.43,3.356a1.69,1.69,0,0,1-1.121-1.168,13.008,13.008,0,0,0,.195-1.5C477.192,598.426,479.38,597.936,479.294,598.956Zm.794,1.02c.678-.2.553,3.068.553,3.068a5.566,5.566,0,0,1-2.391-.28C478.243,602.764,479.411,600.178,480.088,599.976Zm.592-5.786a7.226,7.226,0,0,0-2.772-3.271,3.66,3.66,0,0,1,2.352-.786A9.283,9.283,0,0,1,480.68,594.19Zm8.169,4.034c-2.025,12.086-12.537,7.865-13.573,6.565a15.2,15.2,0,0,0,.3-2.025s4,3.1,8.2.405,3.886-10.2,1.861-12.561-5.482-2.453-7.234-1.955c0,0,.428-2.025,1.5-2.609C479.909,586.045,490.874,586.138,488.849,598.224Zm.5-16.19a10.048,10.048,0,0,1,3.325-.568l-4.423-.841,7.561-.125.2.755-2.048.078s2.056.008,2.507,1.651a22.906,22.906,0,0,1,.428,4.688s-1.635,2.819-5.739.6S488.327,582.572,489.347,582.034Zm12.966,15.426-12.156,4.408.716-1.8s8.068-1.573,9.259-2.7,1.908-3.426.763-3.855-8.535,1.417-8.535,1.417a27.716,27.716,0,0,1,8.4-3.076l-8.356.724,10.31-2.7C501.932,591.644,502.313,597.461,502.313,597.461Zm-7.663.8a17.131,17.131,0,0,0,4.088-1.721c1.5-1.012,1.666-1.721,1.666-1.721a2.748,2.748,0,0,1-.81,1.962C498.762,597.484,494.651,598.263,494.651,598.263Zm7.312-13.231a6.431,6.431,0,0,1,1.729-3.605,11.453,11.453,0,0,1,2.165.81,15.157,15.157,0,0,1,.459,2.079A3.661,3.661,0,0,0,504,585.437c.3-1.931,1.5-1.6,1.5-1.6s.171-.958-1.324-.888S501.963,585.032,501.963,585.032Zm2.757,7.671a1.462,1.462,0,0,0,0-.615s.576-.047.623.062a11.331,11.331,0,0,1,0,1.262Zm.584,1.347a10.652,10.652,0,0,1-.132,1.269c-.07.179-.864-1.316-.779-2.188A1.68,1.68,0,0,0,505.3,594.05Zm-.74-2.648s.491-1.277.716-1.293.078,1.3.078,1.3Zm.607-1.939c-.677.288-1.082,1.643-1.082,1.643s.109-2.57.623-2.609S505.171,589.463,505.171,589.463Zm-1.184,4.766a4.061,4.061,0,0,0,1.051,1.705,1.124,1.124,0,0,1-.7.42C503.863,596.441,503.987,594.229,503.987,594.229Zm2.336,3.13c-1.176,3.925-2.009,1.044-2.009,1.044s.872.374,1.378-.716c0,0-.553.677-1.378-.358,0,0,.958.452,1.557-.794s.755-6.424.062-8.239-1.4-.685-1.4-.685.148-1.355,1.192-1.145S507.5,593.435,506.324,597.359Zm2.134-6.276c0,.164-.553.483-.553.483a15.115,15.115,0,0,0-.374-3.823,5.57,5.57,0,0,1,.927.6C508.5,588.459,508.457,590.912,508.457,591.083Z" transform="translate(-418.635 -566.44)" fill="#1e0000"/>
        <path id="Path_381" data-name="Path 381" d="M556.545,802.3c-.226-.631-16.112-1.191-18.316-.607s-2.609,4.47-2.609,4.47-.786,4.54-.428,6.7.358,2.453,2.718,2.741,12.133,1.059,13.347.156,2.99-8.293,3.932-10.2S556.771,802.93,556.545,802.3Zm-13.628,13.012c-2.663-.094-4.82,0-5.6-.5s-.927-2.352-.927-2.352l.763.841s.179,1.261,2.321,1.472,10.411.452,10.411.452S545.589,815.4,542.918,815.311Zm2.835-12.428c-3.909-.132-6.829-.195-7.818,1.262,0,0,.3-1.511,1.526-1.69s12.312-.195,15.909.421a17.289,17.289,0,0,0-2.25,5.256,13.422,13.422,0,0,1,1.121-4.781S549.661,803.023,545.752,802.883Z" transform="translate(-526.03 -783.145)" fill="#1e0000"/>
        <path id="Path_382" data-name="Path 382" d="M836.265,793.438c-.716-.514-15.076,0-16.423.382s-4.361,4.774-4.447,5.732,17.513-.3,19.078-.631C835.891,798.624,836.99,793.952,836.265,793.438Zm-12.779,3.73s-3.987.28-4.034-.335.833-1.55.833-1.55-2.437,2.087-1.923,2.609,3.146.693,3.146.693H817a15.3,15.3,0,0,1,3.014-3.979c.677-.4,4.018-.389,4.018-.389A5.9,5.9,0,0,0,823.486,797.168Zm4.026,1.02c-1.223.327-2.889,0-3.115-1.55a3.253,3.253,0,0,1,.491-2.43l1.043-.055c-.989.841-1.082,2.912.553,3.349s1.573-.864,1.573-.864c-1.425.779-2.009-1.044-1.339-1.729s1.518.148,1.518.148c.008-.857-.374-1.028-.374-1.028l.833.016a.674.674,0,0,1,.241.716,2.158,2.158,0,0,0,.164,2.274A2.356,2.356,0,0,1,827.512,798.188Zm5.116-.46a2.37,2.37,0,0,1-2.749-3.753l1.012-.039a2.146,2.146,0,0,0-.631,2.227,1.489,1.489,0,0,0,2.928.078,1.358,1.358,0,0,1-1.5.023,1.105,1.105,0,0,1,.709-1.908c.95.047.911.716.911.716a.92.92,0,0,0-.5-1.176h1.106C833.913,793.89,835.159,796.709,832.629,797.729Z" transform="translate(-784.499 -775.562)" fill="#1e0000"/>
        <path id="Path_383" data-name="Path 383" d="M837.168,615.707c1.036-.312,2.383-5.778,4.065-7.367,0,0-15.411-1.168-20.332.358s-12.226,4.828-13.3,7.234C807.6,615.932,836.132,616.018,837.168,615.707Zm-1.487-6.86-4.431,5.794h-1.892l4.493-5.794ZM822.512,610.1c1.277-.374,1.511.615,1.511.615l1.962-1.869h4.345l-4.657,5.794h-5.661l1.8-1.705C820.62,612.662,821.235,610.481,822.512,610.1Zm-3.014,1.082a.74.74,0,1,1-.74.74A.74.74,0,0,1,819.5,611.182Z" transform="translate(-777.31 -604.683)" fill="#1e0000"/>
        <path id="Path_384" data-name="Path 384" d="M765.307,928.276c-2.11,1.036-1.8,5.03-1.8,5.03a10.171,10.171,0,0,1,.537-1.752,5.312,5.312,0,0,0,.81,3.115c.9,1.052,4.649,1.176,8.34,1.083s9.329.568,10.154-1.776.109-4.61-1.261-5.373S767.418,927.24,765.307,928.276Zm14.2,5.35c2.445-.312,2.694-1.48,2.694-1.48-.078,2.32-1.62,2.414-7.881,2.554s-9.033-.35-9.033-2.554a2.606,2.606,0,0,1,1.908-2.64s-1.324,1.947-.265,3.341S777.058,933.937,779.5,933.626Z" transform="translate(-736.637 -899.591)" fill="#1e0000"/>
      </g>
      <g id="Group_31" data-name="Group 31" transform="translate(2.149 35.514)">
        <g id="Group_30" data-name="Group 30">
          <path id="Path_385" data-name="Path 385" d="M306.171,996.2c-5.41.677-10.829,1.184-16.263,1.581v.008c-.078,0-.156.008-.234.016q-3.48.245-6.975.436a5.564,5.564,0,0,0-3.69,1.612,5.623,5.623,0,0,0-1.2,1.744,5.81,5.81,0,0,0-.779-1.075,5.634,5.634,0,0,0-4.43-1.822q-2.838.1-5.683.179c-.444.016-.88.023-1.323.039q-5.173.14-10.354.241c-2.11.039-4.212.085-6.321.124q-6.13.117-12.277.265v.016c-.163-.008-.327-.008-.49-.008-1.23.031-2.46.07-3.7.1-1.121.031-2.25.07-3.371.109q-5.535.187-11.086.483c-2.577.14-5.154.3-7.73.483-4.3.312-8.6.693-12.907,1.176q-2.861,10.431-5.862,20.885c6.228-.747,12.44-1.293,18.645-1.7l2.989-.187c2.125-.125,4.243-.234,6.368-.327,1.028-.047,2.055-.094,3.083-.133,5.5-.218,10.992-.366,16.465-.483v-.015c.171.008.343.015.514.008l7.38-.14a6.488,6.488,0,0,0,1.915-.311l-.047.28q6.177-.105,12.339-.226c.047-.319.086-.646.132-.966a6.05,6.05,0,0,0,3.379.888c2.444-.055,4.9-.125,7.341-.195h.039c1.246-.039,2.483-.078,3.729-.125,2.491-.093,4.982-.195,7.466-.319,1.759-.086,3.527-.187,5.286-.3,2.18-.132,4.367-.288,6.547-.459q5.266-.409,10.517-.989.163-4.719.3-9.43l-2.063.234q1.121-2.266,2.211-4.548Q306.1,999.77,306.171,996.2Z" transform="translate(-191.5 -996.2)" fill="#fff"/>
          <g id="Group_29" data-name="Group 29">
            <g id="Group_27" data-name="Group 27">
              <path id="Path_386" data-name="Path 386" d="M306.171,996.2c-5.41.677-10.829,1.184-16.263,1.581v.008c-.078,0-.156.008-.234.016q-3.48.245-6.975.436a5.564,5.564,0,0,0-3.69,1.612,5.623,5.623,0,0,0-1.2,1.744,5.81,5.81,0,0,0-.779-1.075,5.634,5.634,0,0,0-4.43-1.822q-2.838.1-5.683.179c-.444.016-.88.023-1.323.039q-5.173.14-10.354.241c-2.11.039-4.212.085-6.321.124q-6.13.117-12.277.265v.016c-.163-.008-.327-.008-.49-.008-1.23.031-2.46.07-3.7.1-1.121.031-2.25.07-3.371.109q-5.535.187-11.086.483c-2.577.14-5.154.3-7.73.483-4.3.312-8.6.693-12.907,1.176q-2.861,10.431-5.862,20.885c6.228-.747,12.44-1.293,18.645-1.7l2.989-.187c2.125-.125,4.243-.234,6.368-.327,1.028-.047,2.055-.094,3.083-.133,5.5-.218,10.992-.366,16.465-.483v-.015c.171.008.343.015.514.008l7.38-.14a6.488,6.488,0,0,0,1.915-.311l-.047.28q6.177-.105,12.339-.226c.047-.319.086-.646.132-.966a6.05,6.05,0,0,0,3.379.888c2.444-.055,4.9-.125,7.341-.195h.039c1.246-.039,2.483-.078,3.729-.125,2.491-.093,4.982-.195,7.466-.319,1.759-.086,3.527-.187,5.286-.3,2.18-.132,4.367-.288,6.547-.459q5.266-.409,10.517-.989.163-4.719.3-9.43l-2.063.234q1.121-2.266,2.211-4.548Q306.1,999.77,306.171,996.2Z" transform="translate(-191.5 -996.2)" fill="#1e0000"/>
              <path id="Path_387" data-name="Path 387" d="M270.841,1113.466c-1.448.093-2.9.2-4.353.312q.981-3.761,1.931-7.53-2.324,3.866-4.711,7.756c-.6.055-1.191.1-1.791.156q-.42-3.645-.818-7.289-1.016,3.773-2.056,7.561c-.545.054-1.09.109-1.643.171q1.811-6.53,3.559-13.051c1.285-.125,2.57-.249,3.855-.358.265,2.29.537,4.587.818,6.876q2.219-3.656,4.384-7.3c1.339-.1,2.671-.187,4.01-.272Q272.449,1106.983,270.841,1113.466Z" transform="translate(-252.268 -1092.378)" fill="#fff"/>
              <path id="Path_388" data-name="Path 388" d="M494.992,1101.518q-.456,2.021-.927,4.042c-1.448.07-2.9.14-4.345.218.327-1.347.646-2.7.966-4.049q-.713-4.345-1.386-8.69c1.417-.086,2.827-.163,4.244-.234.358,2.181.716,4.361,1.09,6.542q2.067-3.4,4.073-6.775l1.713-.07Q497.745,1097,494.992,1101.518Z" transform="translate(-466.117 -1085.001)" fill="#fff"/>
              <path id="Path_389" data-name="Path 389" d="M624.932,1101.122c-1.449.031-2.9.07-4.353.117.273-1.347.545-2.687.818-4.034-.9.023-1.8.054-2.7.078-.28,1.347-.561,2.694-.841,4.034-1.448.047-2.9.093-4.353.156q1.191-5.444,2.336-10.887a2.7,2.7,0,0,1,.872-1.487,2.4,2.4,0,0,1,1.542-.6c2.375-.078,4.758-.148,7.133-.21a1.6,1.6,0,0,1,1.347.514,1.689,1.689,0,0,1,.265,1.456Q625.979,1095.69,624.932,1101.122Zm-4.758-11.089c-.382,1.885-.763,3.761-1.145,5.646.9-.031,1.791-.054,2.694-.078.374-1.877.748-3.761,1.114-5.638Q621.505,1089.986,620.174,1090.033Z" transform="translate(-580.649 -1081.116)" fill="#fff"/>
              <path id="Path_390" data-name="Path 390" d="M796.811,1095.079a2.408,2.408,0,0,1-.81,1.472,2.358,2.358,0,0,1-1.557.576c-2.437.047-4.875.086-7.32.14a1.51,1.51,0,0,1-1.659-1.978q1.016-5.431,2-10.863l4.221-.094q-.97,5.642-1.97,11.276c.9-.016,1.807-.039,2.71-.055q.97-5.642,1.908-11.276c1.4-.031,2.811-.055,4.213-.078C797.972,1087.837,797.4,1091.458,796.811,1095.079Z" transform="translate(-739.178 -1077.347)" fill="#fff"/>
              <path id="Path_391" data-name="Path 391" d="M978.228,1082.8l-3.154.07q-.771,5.642-1.581,11.291c-1.441.031-2.881.055-4.33.078q.865-5.642,1.69-11.284c-1.051.023-2.1.039-3.154.062.078-.537.164-1.067.241-1.6,3.5-.07,6.993-.133,10.481-.218C978.361,1081.737,978.3,1082.275,978.228,1082.8Z" transform="translate(-907.276 -1074.581)" fill="#fff"/>
              <path id="Path_392" data-name="Path 392" d="M1115.315,1087.93a2.281,2.281,0,0,1-.724,1.488,2.247,2.247,0,0,1-1.519.6q-3.633.117-7.281.195a1.724,1.724,0,0,1-1.409-.522,1.674,1.674,0,0,1-.35-1.456q.584-4.427,1.137-8.87a2.37,2.37,0,0,1,.74-1.479,2.216,2.216,0,0,1,1.488-.592q3.539-.093,7.063-.218a1.7,1.7,0,0,1,1.378.5,1.756,1.756,0,0,1,.382,1.456Q1115.786,1083.492,1115.315,1087.93Zm-5.879-9.072q-.561,4.848-1.16,9.7c.9-.023,1.791-.046,2.694-.078q.573-4.848,1.1-9.7C1111.2,1078.8,1110.315,1078.835,1109.436,1078.858Z" transform="translate(-1032.966 -1070.775)" fill="#fff"/>
              <path id="Path_393" data-name="Path 393" d="M1285.139,1213.957c-1.082.047-2.157.093-3.24.133.07-.717.141-1.441.21-2.157,1.075-.039,2.149-.085,3.224-.132C1285.264,1212.516,1285.2,1213.241,1285.139,1213.957Z" transform="translate(-1197.014 -1195.011)" fill="#fff"/>
              <path id="Path_394" data-name="Path 394" d="M1289.5,1220.091c.039-.366.07-.732.109-1.1l2.15-.093c-.031.366-.07.732-.1,1.1Z" transform="translate(-1204.023 -1201.558)" fill="#afcfcc"/>
              <path id="Path_395" data-name="Path 395" d="M1340.876,1078.592c-1.433.1-2.858.195-4.291.28.109-1.355.21-2.71.311-4.065-.888.055-1.775.109-2.663.156-.109,1.355-.226,2.71-.335,4.065q-2.149.117-4.3.21.5-5.466.965-10.933a2.389,2.389,0,0,1,.677-1.5,2.159,2.159,0,0,1,1.457-.631c2.344-.125,4.7-.273,7.04-.444a1.7,1.7,0,0,1,1.394.452,1.806,1.806,0,0,1,.444,1.441C1341.343,1071.28,1341.117,1074.94,1340.876,1078.592Zm-6.09-10.933c-.14,1.892-.288,3.792-.436,5.685.888-.047,1.768-.1,2.656-.156.14-1.892.272-3.792.4-5.685C1336.538,1067.558,1335.658,1067.6,1334.786,1067.659Z" transform="translate(-1241.008 -1060.308)" fill="#fff"/>
              <path id="Path_396" data-name="Path 396" d="M1501.147,1053.551q-2.511,5.151-5.178,10.24,2.394-.21,4.789-.452c-.024.545-.047,1.083-.062,1.628q-4.544.455-9.1.786c.031-.545.062-1.083.1-1.628q2.71-5.058,5.272-10.178-2.336.222-4.688.405c.031-.537.055-1.083.085-1.62q4.416-.351,8.823-.833C1501.178,1052.453,1501.162,1053,1501.147,1053.551Z" transform="translate(-1390.393 -1047.562)" fill="#fff"/>
            </g>
            <g id="Group_28" data-name="Group 28" transform="translate(5.825 4.929)">
              <path id="Path_397" data-name="Path 397" d="M292.648,1116.7q-1.495.129-2.99.28c-.514,1.924-1.036,3.839-1.557,5.762l.545-.07c.086-.3.164-.607.249-.911.343-.023.693-.054,1.036-.078.031.272.062.553.093.825,1.09-.125,2.18-.249,3.263-.366Q292.959,1119.422,292.648,1116.7Z" transform="translate(-286.402 -1112.246)" fill="#fff"/>
              <path id="Path_398" data-name="Path 398" d="M316.359,1185.971c-.1-.8-.195-1.6-.3-2.414-1.09.117-2.173.241-3.263.366q.339,3.014.685,6.027l1.02-.093q2.021-3.294,3.995-6.557c-.187.016-.374.039-.561.055C317.41,1184.234,316.888,1185.1,316.359,1185.971Z" transform="translate(-309.179 -1173.659)" fill="#afcfcc"/>
              <path id="Path_399" data-name="Path 399" d="M382.234,1108.1q-1.694,2.862-3.434,5.731c.187-.016.374-.039.561-.055.187-.311.374-.615.561-.927.319.1.639.195.958.3-.039.163-.086.327-.125.5,1.075-.1,2.149-.2,3.224-.3q.666-2.722,1.332-5.451C384.282,1107.962,383.254,1108.033,382.234,1108.1Z" transform="translate(-370.039 -1104.131)" fill="#fff"/>
              <path id="Path_400" data-name="Path 400" d="M266.3,1199.776c.179-.016.358-.039.537-.055q.853-3.119,1.705-6.222l-.545.07C267.437,1195.634,266.876,1197.705,266.3,1199.776Z" transform="translate(-266.3 -1183.065)" fill="#afcfcc"/>
              <path id="Path_401" data-name="Path 401" d="M382.9,1184.489c1.082-.086,2.173-.163,3.255-.234.537-2.149,1.075-4.306,1.6-6.456-1.075.094-2.149.195-3.224.3C383.99,1180.229,383.445,1182.355,382.9,1184.489Z" transform="translate(-373.82 -1168.588)" fill="#afcfcc"/>
              <path id="Path_402" data-name="Path 402" d="M500.193,1103.4c-1.059.055-2.126.117-3.193.179q.409,2.6.833,5.21c1.067-.086,2.141-.164,3.208-.242C500.761,1106.834,500.473,1105.113,500.193,1103.4Z" transform="translate(-479.041 -1099.981)" fill="#fff"/>
              <path id="Path_403" data-name="Path 403" d="M507.34,1169.876c-.132-.771-.265-1.542-.389-2.313-1.067.078-2.141.156-3.208.242.164.989.327,1.986.491,2.975-.273,1.168-.553,2.344-.833,3.512q1.624-.093,3.247-.164c.288-1.238.568-2.476.857-3.714.615-1,1.223-2.009,1.83-3.014-.171.008-.335.023-.506.031C508.329,1168.249,507.839,1169.067,507.34,1169.876Z" transform="translate(-484.943 -1158.998)" fill="#afcfcc"/>
              <path id="Path_404" data-name="Path 404" d="M576.262,1099.716c-1.044,1.76-2.1,3.52-3.162,5.288.171-.008.335-.024.506-.031q1.6-2.64,3.162-5.272C576.6,1099.708,576.433,1099.716,576.262,1099.716Z" transform="translate(-549.217 -1096.57)" fill="#fff"/>
              <path id="Path_405" data-name="Path 405" d="M644.835,1095.691c1.238-.039,2.476-.078,3.714-.109-.28,1.448-.561,2.9-.849,4.353,1.075-.055,2.141-.109,3.216-.156.218-1.153.436-2.305.646-3.458a1.144,1.144,0,0,0-.156-1.012,1.085,1.085,0,0,0-.934-.327q-3.563.093-7.141.21a1.914,1.914,0,0,0-1.215.467,2.113,2.113,0,0,0-.685,1.191c-.241,1.153-.483,2.313-.732,3.465l3.232-.187C644.235,1098.658,644.531,1097.179,644.835,1095.691Z" transform="translate(-611.556 -1092.218)" fill="#fff"/>
              <path id="Path_406" data-name="Path 406" d="M719.431,1203.794a.9.9,0,0,1-.031.141l3.294-.421c.031-.171.062-.343.1-.514Q721.125,1203.385,719.431,1203.794Z" transform="translate(-684.128 -1191.825)" fill="#fff"/>
              <path id="Path_407" data-name="Path 407" d="M712.9,1212.467c1.082-.031,2.173-.054,3.255-.086.187-.958.374-1.923.553-2.881l-3.294.421Z" transform="translate(-678.134 -1197.819)" fill="#afcfcc"/>
              <path id="Path_408" data-name="Path 408" d="M633.857,1156.6c-1.075.047-2.142.1-3.216.156-.156.779-.3,1.558-.459,2.336-1.254.031-2.515.07-3.769.109.156-.748.311-1.5.467-2.25-1.075.062-2.157.117-3.232.187-.475,2.258-.966,4.517-1.448,6.775l3.263-.117c.28-1.347.568-2.694.849-4.034,1.261-.039,2.515-.078,3.777-.109-.093.452-.179.9-.273,1.355,1.121-.273,2.251-.538,3.372-.8C633.4,1159.006,633.632,1157.807,633.857,1156.6Z" transform="translate(-594.496 -1149.039)" fill="#afcfcc"/>
              <path id="Path_409" data-name="Path 409" d="M888.78,1163.379q-.14.829-.28,1.658l3.278-.4c.109-.678.218-1.363.327-2.04C891,1162.857,889.894,1163.114,888.78,1163.379Z" transform="translate(-840.065 -1154.572)" fill="#fff"/>
              <path id="Path_410" data-name="Path 410" d="M800.5,1184.3c-1.114.265-2.227.522-3.348.786-.055.28-.1.553-.156.833,1.1-.14,2.188-.272,3.286-.4C800.364,1185.11,800.434,1184.7,800.5,1184.3Z" transform="translate(-755.687 -1174.582)" fill="#fff"/>
              <path id="Path_411" data-name="Path 411" d="M799.16,1192.538l-3.792.07c.179-.981.35-1.962.529-2.943-1.09.132-2.188.273-3.286.4-.109.6-.218,1.192-.335,1.791a.99.99,0,0,0,1.121,1.34q3.656-.082,7.312-.14a1.836,1.836,0,0,0,1.223-.452,1.98,1.98,0,0,0,.646-1.176c.14-.88.288-1.752.428-2.632l-3.278.4C799.541,1190.311,799.347,1191.424,799.16,1192.538Z" transform="translate(-751.291 -1178.731)" fill="#afcfcc"/>
              <path id="Path_412" data-name="Path 412" d="M802.441,1155.622c.14-.81.288-1.612.428-2.422l-3.208.14-.561,3.061C800.214,1156.143,801.327,1155.879,802.441,1155.622Z" transform="translate(-757.624 -1145.904)" fill="#afcfcc"/>
              <path id="Path_413" data-name="Path 413" d="M895.425,1150.52c.055-.343.109-.678.164-1.02-1.067.047-2.142.086-3.208.133-.093.553-.187,1.114-.28,1.667C893.213,1151.034,894.319,1150.777,895.425,1150.52Z" transform="translate(-843.384 -1142.491)" fill="#afcfcc"/>
              <path id="Path_414" data-name="Path 414" d="M899.625,1091.2c-1.051.024-2.1.039-3.162.062-.249,1.534-.506,3.076-.763,4.61,1.067-.047,2.141-.086,3.208-.132C899.15,1094.221,899.391,1092.711,899.625,1091.2Z" transform="translate(-846.704 -1088.731)" fill="#fff"/>
              <path id="Path_415" data-name="Path 415" d="M810.326,1092.9l-3.162.07-.864,4.766,3.208-.14Q809.929,1095.248,810.326,1092.9Z" transform="translate(-764.263 -1090.299)" fill="#fff"/>
              <path id="Path_416" data-name="Path 416" d="M984.961,1088.653c.023-.187.047-.366.07-.553q-4.719.105-9.446.195c-.031.187-.054.366-.085.553,1.051-.023,2.1-.039,3.154-.062-.311,2.149-.623,4.306-.942,6.456l3.255-.4q.432-3.06.849-6.121C982.859,1088.707,983.91,1088.684,984.961,1088.653Z" transform="translate(-920.293 -1085.873)" fill="#fff"/>
              <path id="Path_417" data-name="Path 417" d="M994.6,1179.933c1.083-.016,2.157-.039,3.24-.062.249-1.721.5-3.45.74-5.171l-3.255.4Z" transform="translate(-937.905 -1165.729)" fill="#afcfcc"/>
              <path id="Path_418" data-name="Path 418" d="M1128.749,1084.3a1.176,1.176,0,0,0-.958-.319c-2.359.086-4.711.156-7.079.218a1.725,1.725,0,0,0-1.168.46,1.89,1.89,0,0,0-.584,1.184q-.281,2.242-.561,4.478l3.232-.421c.21-1.728.413-3.465.615-5.194,1.231-.031,2.453-.07,3.683-.117-.171,1.6-.35,3.2-.529,4.8l3.216-.444q.187-1.822.366-3.645A1.206,1.206,0,0,0,1128.749,1084.3Z" transform="translate(-1052.07 -1082.075)" fill="#fff"/>
              <path id="Path_419" data-name="Path 419" d="M1117.924,1154.4c-1.254.039-2.515.07-3.769.1q.35-2.78.677-5.56l-3.232.42q-.28,2.2-.561,4.392a1.207,1.207,0,0,0,.218,1.02,1.179,1.179,0,0,0,.973.327c2.422-.055,4.851-.125,7.273-.195a1.775,1.775,0,0,0,1.191-.467,1.865,1.865,0,0,0,.577-1.191c.187-1.752.366-3.5.545-5.249-1.067.148-2.141.3-3.216.444Q1118.263,1151.422,1117.924,1154.4Z" transform="translate(-1045.263 -1141.108)" fill="#afcfcc"/>
              <path id="Path_420" data-name="Path 420" d="M1410.774,1168.553q-.152,2.032-.3,4.064c1.075-.062,2.142-.132,3.216-.21q.152-2.208.288-4.407-2.43.339-4.875.654C1409.661,1168.623,1410.214,1168.592,1410.774,1168.553Z" transform="translate(-1320.142 -1159.551)" fill="#afcfcc"/>
              <path id="Path_421" data-name="Path 421" d="M1337,1183.973c1.075-.047,2.149-.1,3.224-.156.109-1.308.218-2.616.327-3.917-1.075.132-2.141.257-3.216.39C1337.218,1181.5,1337.109,1182.734,1337,1183.973Z" transform="translate(-1253.651 -1170.524)" fill="#afcfcc"/>
              <path id="Path_422" data-name="Path 422" d="M1435.627,1115.6l-1.6.28c-.008.14-.016.28-.031.421C1434.553,1116.059,1435.09,1115.834,1435.627,1115.6Z" transform="translate(-1343.103 -1111.231)" fill="#afcfcc"/>
              <path id="Path_423" data-name="Path 423" d="M1351.556,1072.707a1.151,1.151,0,0,0-.965-.28c-2.344.171-4.7.311-7.048.444a1.665,1.665,0,0,0-1.145.49,1.869,1.869,0,0,0-.537,1.2c-.07.872-.148,1.752-.218,2.624,1.067-.164,2.134-.335,3.193-.506q.129-1.67.257-3.341c1.222-.07,2.445-.148,3.667-.226-.062.981-.132,1.962-.2,2.951l1.6-.28c-.537.234-1.082.467-1.62.693-.078,1.129-.156,2.258-.241,3.388-1.238.078-2.484.148-3.722.218l.164-2.009c-1.09.452-2.18.9-3.279,1.339-.054.584-.1,1.168-.156,1.752,1.075-.125,2.15-.257,3.216-.389.007-.047.007-.093.015-.14l2.056-.117c1.627-.21,3.247-.428,4.875-.654q.2-3.072.382-6.152A1.28,1.28,0,0,0,1351.556,1072.707Z" transform="translate(-1257.622 -1071.414)" fill="#fff"/>
              <path id="Path_424" data-name="Path 424" d="M1346.587,1127.1c-1.067.171-2.126.343-3.193.506-.062.74-.124,1.48-.195,2.219,1.1-.444,2.188-.888,3.278-1.339C1346.517,1128.027,1346.549,1127.567,1346.587,1127.1Z" transform="translate(-1259.374 -1121.836)" fill="#afcfcc"/>
              <path id="Path_425" data-name="Path 425" d="M1504.041,1153.8c-1.028.163-2.056.327-3.084.483q-1.04,2-2.1,3.987c-.016.3-.031.584-.054.872,2.671-.2,5.342-.428,8.013-.693q.012-.28.023-.561-2.581.257-5.163.475Q1502.877,1156.085,1504.041,1153.8Z" transform="translate(-1402.857 -1146.457)" fill="#afcfcc"/>
              <path id="Path_426" data-name="Path 426" d="M1515.295,1060.4c.008-.3.016-.6.031-.9q-3.89.421-7.8.732c-.008.187-.015.374-.031.56q2.523-.21,5.038-.451-1.741,3.5-3.551,6.985c1.028-.156,2.056-.319,3.084-.483Q1513.707,1063.631,1515.295,1060.4Z" transform="translate(-1410.88 -1059.5)" fill="#fff"/>
            </g>
          </g>
        </g>
      </g>
    </g>
  </g>
</svg>
