<svg xmlns="http://www.w3.org/2000/svg" id="prefix__premium" width="60.218" height="60.063" viewBox="0 0 60.218 60.063">
    <defs>
        <style>
            .prefix__cls-1{fill:#ff7d00}
        </style>
    </defs>
    <g id="prefix__Group_560" data-name="Group 560" transform="translate(6.601 .144)">
        <g id="prefix__Group_559" data-name="Group 559">
            <path id="prefix__Path_682" d="M103.027 55.775L93.9 39.96l2.963-1.427a.883.883 0 00.478-.6l1.049-4.6 2.939-3.686a.883.883 0 00.171-.748l-1.049-4.6 1.049-4.6a.883.883 0 00-.171-.748l-2.939-3.686-1.049-4.6a.883.883 0 00-.478-.6l-4.252-2.028-2.939-3.686a.883.883 0 00-.691-.333h-4.715l-4.247-2.045a.884.884 0 00-.767 0L75 4.018h-4.71a.883.883 0 00-.691.333L66.66 8.037l-4.248 2.046a.883.883 0 00-.478.6l-1.049 4.6-2.94 3.686a.883.883 0 00-.171.748l1.049 4.6-1.049 4.6a.883.883 0 00.171.748l2.939 3.686 1.049 4.6a.883.883 0 00.478.6l2.963 1.427-9.13 15.815a.891.891 0 00.994 1.3l5.585-1.5 1.5 5.585a.891.891 0 001.619.213l9.55-16.541 3.763 1.812a.89.89 0 00.767 0l3.763-1.812 9.55 16.541a.891.891 0 001.619-.213l1.5-5.585 5.585 1.5a.891.891 0 00.988-1.318zm-37.552 2.866L64.3 54.263a.893.893 0 00-1.083-.625l-4.378 1.173 8.049-13.942 2.708 3.4a.883.883 0 00.691.333h3.293zm18.206-15.723l-4.046 1.948-4.045-1.948a.883.883 0 00-.383-.088h-4.49l-2.8-3.511a.881.881 0 00-.307-.245l-4.046-1.948-1-4.378a.88.88 0 00-.171-.354l-2.8-3.511 1-4.378a.881.881 0 000-.393l-1-4.378 2.8-3.511a.883.883 0 00.171-.354l1-4.378 4.046-1.948a.88.88 0 00.307-.245l2.8-3.511h4.49a.885.885 0 00.383-.087l4.045-1.95 4.046 1.95a.883.883 0 00.383.088h4.49l2.8 3.511a.881.881 0 00.307.245l4.046 1.948 1 4.378a.88.88 0 00.171.354l2.8 3.511-1 4.378a.881.881 0 000 .393l1 4.378-2.8 3.511a.883.883 0 00-.171.354l-1 4.378-4.046 1.948a.88.88 0 00-.307.245l-2.8 3.511h-4.49a.889.889 0 00-.383.087zm12.37 10.72a.893.893 0 00-1.083.625L93.8 58.641 85.688 44.6h3.293a.883.883 0 00.691-.333l2.708-3.4 8.049 13.942z" class="prefix__cls-1" data-name="Path 682" transform="translate(-56.128 -1.885)"/>
        </g>
    </g>
    <g id="prefix__Group_562" data-name="Group 562" transform="translate(13.199 5.656)">
        <g id="prefix__Group_561" data-name="Group 561">
            <path id="prefix__Path_683" d="M140.878 53.5a.884.884 0 10-1.228 1.271 15.1 15.1 0 11-3.39-2.471.884.884 0 10.834-1.559 16.93 16.93 0 103.785 2.759z" class="prefix__cls-1" data-name="Path 683" transform="translate(-112.219 -48.754)"/>
        </g>
    </g>
    <g id="prefix__Group_564" data-name="Group 564" transform="translate(17.912 13.198)">
        <g id="prefix__Group_563" data-name="Group 563">
            <path id="prefix__Path_684" d="M176.514 117l-2.828-3.771a.884.884 0 00-.707-.354h-16.97a.884.884 0 00-.707.354L152.474 117a.894.894 0 00-.177.53v3.77a.889.889 0 00.213.575l11.308 13.192a.9.9 0 001.353 0l11.308-13.192a.889.889 0 00.213-.575v-3.771a.893.893 0 00-.178-.529zm-3.977-2.357l1.5 2h-3.447l-1.5-2zm-3.27 3.771v2h-9.545v-2zm-7.159-3.771h4.773l1.5 2H160.6zm-5.656 0h3.448l-1.5 2h-3.447zm-2.386 3.771h3.889v2h-3.889zm1.038 3.771h3.152l3.152 7.355zm9.391 10.071l-4.316-10.071h8.632zm3.087-2.716l3.152-7.355h3.152zm7.342-9.122h-3.889v-2h3.889z" class="prefix__cls-1" data-name="Path 684" transform="translate(-152.297 -112.879)"/>
        </g>
    </g>
    <g id="prefix__Group_566" data-name="Group 566" transform="translate(0 25.454)">
        <g id="prefix__Group_565" data-name="Group 565">
            <path id="prefix__Path_685" d="M8.425 223.682c-1.366 0-2.887-2.347-2.887-5.715a.884.884 0 10-1.768 0c0 3.368-1.522 5.715-2.887 5.715a.884.884 0 000 1.768c1.366 0 2.887 2.347 2.887 5.715a.884.884 0 101.768 0c0-3.368 1.522-5.715 2.887-5.715a.884.884 0 000-1.768zm-3.771 3.043a6.175 6.175 0 00-1.542-2.159 6.176 6.176 0 001.542-2.159 6.174 6.174 0 001.546 2.159 6.176 6.176 0 00-1.546 2.159z" class="prefix__cls-1" data-name="Path 685" transform="translate(.001 -217.083)"/>
        </g>
    </g>
    <g id="prefix__Group_568" data-name="Group 568" transform="translate(52.794 41.481)">
        <g id="prefix__Group_567" data-name="Group 567">
            <path id="prefix__Path_686" d="M455.416 357.12c-1.054 0-1.944-1.322-1.944-2.887a.884.884 0 00-1.768 0c0 1.565-.89 2.887-1.944 2.887a.884.884 0 100 1.768c1.054 0 1.944 1.322 1.944 2.887a.884.884 0 001.768 0c0-1.565.89-2.887 1.944-2.887a.884.884 0 100-1.768zm-2.828 1.643a4.249 4.249 0 00-.654-.759 4.247 4.247 0 00.654-.759 4.246 4.246 0 00.654.759 4.257 4.257 0 00-.654.759z" class="prefix__cls-1" data-name="Path 686" transform="translate(-448.876 -353.349)"/>
        </g>
    </g>
    <g id="prefix__Group_570" data-name="Group 570" transform="translate(47.137)">
        <g id="prefix__Group_569" data-name="Group 569">
            <path id="prefix__Path_687" d="M407.322 4.431c-1.054 0-1.944-1.322-1.944-2.887a.884.884 0 00-1.768 0c0 1.565-.89 2.887-1.944 2.887a.884.884 0 000 1.768c1.054 0 1.944 1.322 1.944 2.887a.884.884 0 001.768 0c0-1.565.89-2.887 1.944-2.887a.884.884 0 100-1.768zm-2.828 1.643a4.248 4.248 0 00-.654-.759 4.24 4.24 0 00.654-.759 4.249 4.249 0 00.654.759 4.257 4.257 0 00-.654.759z" class="prefix__cls-1" data-name="Path 687" transform="translate(-400.782 -.66)"/>
        </g>
    </g>
</svg>
